<?xml version="1.0" encoding="UTF-8" standalone="no"?>
<svg
   version="1.1"
   id="Layer_1"
   x="0px"
   y="0px"
   width="367236"
   viewBox="0 0 367236 157609"
   enable-background="new 0 0 606 397"
   xml:space="preserve"
   height="157609"
   xmlns="http://www.w3.org/2000/svg"
   xmlns:svg="http://www.w3.org/2000/svg"><defs
   id="defs36" />

<path
   fill="#8eb638"
   opacity="1"
   stroke="none"
   d="m 46.015175,187.16225 c 15.768822,-8.65827 31.537643,-17.31655 47.658745,-25.72593 1.663253,1.65148 3.045631,4.3024 4.272346,4.23223 4.409554,-0.25224 9.706844,2.81491 13.491794,-2.66835 7.18118,0.8415 13.51241,-3.95641 20.38387,-1.45764 0.25113,0.0913 0.62836,-0.16491 0.94704,-0.25838 6.51416,-1.91107 12.97493,-4.03905 19.56063,-5.65926 4.64585,-1.14299 9.5842,-2.65039 14.17241,-2.1147 7.09983,0.82897 12.74405,-1.68232 18.10669,-5.33629 5.82289,-3.96756 12.12921,-4.91229 18.90957,-4.62155 2.60044,0.1115 5.22939,-0.51283 7.83544,-0.44114 2.63083,0.0724 5.24373,0.6517 7.87482,0.89898 2.76984,0.26033 5.89536,1.2795 8.24858,0.37036 3.58283,-1.38423 6.02294,-0.82156 9.23558,0.9897 5.27104,2.97175 10.94309,5.31524 16.64163,7.38515 1.36037,0.49414 4.9659,-1.0206 5.02806,-1.80922 0.37198,-4.72093 3.42167,-6.11766 7.21003,-6.83682 2.6708,-0.507 5.41659,-1.16623 8.08673,-1.01466 5.38272,0.30551 1.02606,4.87178 2.55838,6.87925 7.46146,1.02031 7.32501,1.17916 13.4808,6.46709 1.62827,1.3987 4.47037,2.27992 6.59958,2.03682 7.22464,-0.82491 8.47196,-2.60979 8.98444,-12.06622 1.96518,1.50134 3.32666,2.54145 4.66311,3.59948 -0.025,0.0179 0.0416,-10e-4 0.43787,-0.0254 5.38452,-1.38954 10.37271,-2.75495 16.00592,-4.29689 0.6424,0.16472 2.20569,0.79475 3.81039,0.92886 3.24726,0.27136 6.517,0.27379 9.93381,0.67497 1.14124,2.53064 2.12616,4.77339 3.25312,7.33953 4.04742,0.39952 8.6401,1.0466 13.25012,1.21307 1.85931,0.0671 3.74411,-0.97134 5.63943,-1.41129 3.07742,-0.7143 6.14664,-1.54762 9.26819,-1.96551 3.36948,-0.45111 6.7999,-0.42665 10.19482,-0.71463 2.87232,-0.24367 5.92862,-1.43356 8.55289,-0.78529 4.37671,1.08119 8.47327,3.29649 12.47833,5.32937 -4.87677,1.09773 -9.54589,1.89012 -14.21063,2.7076 -2.24673,0.39369 -4.93353,0.18477 -6.64874,1.36815 -6.94183,4.78949 -13.6012,9.99089 -20.31281,15.10844 -0.80642,0.61488 -1.2955,1.64597 -3.01358,3.90959 9.41886,0 17.43576,0 25.45264,0 0.1188,0.55693 0.23758,1.11386 0.35635,1.67079 -1.34771,1.07706 -2.92953,1.96709 -3.98001,3.28167 -1.14227,1.42942 -1.79083,3.25335 -2.65466,4.90527 1.64029,0.57263 3.26801,1.57143 4.92374,1.6203 2.63394,0.0777 5.29257,-0.72316 7.92868,-0.65874 1.25696,0.0307 2.48611,1.19718 3.72787,1.8492 -0.72128,1.13582 -1.26303,2.45866 -2.20584,3.36371 -1.42429,1.3672 -3.19778,2.36265 -4.69809,3.66035 -2.65634,2.29766 -3.79169,4.14804 -0.85959,7.8237 1.61188,2.02056 0.37677,6.49764 0.0438,9.82903 -0.29904,2.9924 -2.2492,4.06413 -5.30465,3.83722 -0.88681,-0.0658 -1.89108,1.44964 -2.84149,2.24023 0.914,0.99507 1.69748,2.63411 2.76913,2.85127 2.23816,0.45362 4.63696,0.28952 6.95444,0.14051 4.93838,-0.31758 9.86865,-1.13996 14.79925,-1.11682 8.60501,0.0404 17.21488,0.93261 25.8093,0.76783 7.06369,-0.1354 6.57233,-0.63642 7.31833,-7.69305 0.70746,-6.69249 1.77383,-13.56548 4.1405,-19.80611 2.66226,-7.02006 7.16773,-8.04141 13.94837,-5.02058 1.01763,0.4534 2.26837,0.75456 3.35015,0.62312 3.15567,-0.38342 6.28037,-1.02165 9.41489,-1.14555 -0.0745,1.57608 0.23026,2.94887 -0.28223,3.864 -2.6737,4.77456 -6.29376,9.19458 -4.56744,15.30409 0.12646,0.44766 -0.50641,1.21468 -0.93744,1.69858 -3.69064,4.14316 -7.30084,8.36909 -11.19519,12.31355 -1.32431,1.34137 -3.41226,1.9129 -5.11407,2.90039 -5.38169,3.12283 -13.38337,-0.37688 -17.25702,6.9398 -0.49149,0.92824 -3.09195,0.91008 -4.736,1.01899 -2.62274,0.17375 -5.58169,-0.67545 -7.82977,0.26599 -4.80936,2.01407 -9.36206,4.72577 -13.80029,7.5027 -1.97061,1.23299 -3.22089,1.50687 -5.68912,0.86977 -2.69025,-0.69443 -6.05395,0.60821 -8.90225,1.64793 -0.57791,0.21097 0.0884,3.19295 -0.29462,4.78285 -0.29117,1.20859 -1.07638,2.75446 -2.08746,3.26155 -8.55597,4.29106 -17.21436,8.37786 -25.84198,12.52599 0.087,0.55221 0.17407,1.10443 0.26111,1.65665 5.90713,3.29641 13.88952,2.62283 18.25955,8.87554 0.0635,0.0908 0.31866,0.0701 0.48312,0.0646 5.48279,-0.18338 9.10901,1.87436 8.8722,8.62848 5.5032,-2.7616 9.18145,-0.72162 11.68325,3.21512 2.41047,3.79315 -1.33621,6.2998 -2.67569,9.36133 -1.14669,2.62088 -1.43411,5.6177 -2.07531,8.33679 3.02853,-0.16321 4.88903,-0.26346 6.4934,-0.13657 -8.2575,4.84229 -16.25882,9.45743 -24.51437,13.77939 -4.89212,-3.45334 -9.49216,-6.67084 -14.17767,-9.7587 -5.58942,-3.6835 -15.71353,-2.53772 -20.06653,2.48285 -4.08325,4.70944 -5.86423,11.14835 -11.36865,14.92572 -1.07196,0.73563 -0.84995,3.32816 -1.2681,5.05368 -0.38068,1.5708 -0.32211,3.66141 -1.32278,4.59473 -3.68766,3.43948 -3.30372,7.32168 -2.3472,11.54599 -0.71735,0.13422 -1.12732,0.21042 -1.85996,0.0927 -2.07251,-0.10782 -3.8815,0.29483 -5.557,-0.0178 -1.98526,-0.37042 -4.84424,-0.79987 -5.61539,-2.16748 -5.09085,-9.02817 -11.9812,-17.90772 -4.58963,-29.07956 0.95129,-1.43784 0.47485,-3.86783 0.53012,-5.84186 0.1579,-5.63477 4.03015,-9.617 9.65469,-9.91208 2.21921,-0.11639 4.43219,-0.35208 7.93201,-0.63855 -2.23706,-2.45007 -3.57629,-3.91681 -4.68756,-5.13391 7.22207,-3.32809 14.31174,-6.59518 21.57678,-9.94308 -2.7981,-3.60547 -5.88065,-4.13129 -9.60895,-2.97422 -3.33371,1.03467 -5.45294,0.43723 -5.27191,-3.93966 0.0558,-1.34729 -1.71655,-3.32605 -3.14575,-4.08289 -6.23917,-3.3038 -12.50311,-6.67114 -19.0708,-9.20486 -4.29028,-1.65519 -9.08557,-2.31849 -13.71308,-2.68131 -3.656,-0.28662 -5.54873,-1.768 -7.29409,-4.87802 -1.43601,-2.55878 -3.74295,-5.39268 -6.32312,-6.37736 -4.56906,-1.74373 -9.62418,-2.25696 -14.50315,-3.13329 -4.72885,-0.84937 -9.56511,-1.2234 -14.19796,-2.41406 -1.49254,-0.38359 -3.05936,-2.50661 -3.60996,-4.16082 -1.9444,-5.84185 -7.19983,-9.69635 -13.57297,-9.60334 -6.07155,0.0886 -11.69279,-0.66526 -14.24841,-7.53868 -0.39996,-1.07569 -2.21271,-2.01125 -3.52373,-2.28452 -2.91417,-0.60744 -5.99342,-0.47842 -8.86798,-1.19827 -1.57052,-0.39328 -2.86087,-1.90535 -4.27757,-2.91289 1.83108,-0.78525 3.60043,-1.86105 5.51207,-2.26738 1.64439,-0.34953 3.48642,0.31862 5.17811,0.0836 2.73497,-0.37991 5.4254,-1.6522 8.12194,-1.61549 5.26256,0.0717 10.52389,1.22839 15.77208,1.13852 8.97801,-0.15376 17.74258,-0.21689 25.1109,6.13936 1.03561,0.89335 2.74173,1.39229 4.1456,1.40945 5.96774,0.073 11.93933,-0.18852 17.90768,-0.13251 1.55081,0.0145 3.45224,0.29694 4.57681,1.21261 3.73844,3.04391 5.9625,1.3199 8.09458,-1.91892 1.35724,-2.06178 2.71844,-4.19058 4.44375,-5.92546 3.24576,-3.26375 3.1962,-4.51195 -0.87979,-7.03511 -3.79599,-2.34985 -7.61819,-4.65808 -11.39087,-7.04477 -5.63064,-3.56206 -7.10998,-12.35301 -3.06463,-17.70934 0.44311,-0.58668 0.61111,-1.38113 0.96255,-2.21107 -3.74701,-1.94322 -5.90765,0.11528 -8.11786,2.22328 -3.45916,3.29921 -6.89575,6.64598 -12.11169,2.7517 -0.56577,-0.42241 -2.5376,0.0265 -3.03403,0.68853 -3.06183,4.08326 -6.47795,2.9627 -10.18361,1.19056 -4.16658,-1.99256 -5.9413,-0.83411 -6.45878,3.89273 -0.0949,0.86715 -0.43886,1.70706 -0.7746,2.9569 -0.93869,-0.67561 -1.8296,-0.98535 -1.88893,-1.41099 -0.56931,-4.08508 -3.26521,-4.44556 -6.78203,-5.39969 -3.92663,-1.06534 -9.54581,-2.4919 -8.01117,-9.22998 0.13274,-0.58284 -0.94353,-2.02579 -1.57907,-2.1055 -4.68178,-0.58731 -9.38704,-1.09723 -14.09921,-1.3022 -4.83226,-0.21019 -9.68079,-0.0466 -14.52219,-0.0466 -0.13833,-0.44881 -0.27666,-0.89761 -0.41499,-1.34644 1.39082,-0.85589 2.68474,-2.00297 4.19333,-2.50497 2.83356,-0.94287 5.91392,-1.21695 8.64999,-2.35181 1.57921,-0.65501 2.68582,-2.44944 4.00514,-3.73104 -1.47081,-0.77341 -2.89796,-2.11132 -4.41949,-2.22904 -10.21416,-0.79025 -20.44353,-1.53543 -30.67992,-1.76706 -2.22285,-0.0503 -5.367,1.46054 -6.57005,3.26409 -2.92447,4.38417 -5.19313,5.5581 -10.38521,3.41371 -3.22247,-1.33094 -6.33198,-2.96959 -9.61874,-4.10315 -5.71819,-1.97211 -15.95499,2.1085 -18.81084,7.26935 -1.74075,3.14575 -4.37379,3.38609 -6.70286,0.57812 -0.69014,-0.83205 -1.27446,-1.75186 -1.13495,-1.55795 -5.20117,2.05971 -9.72575,3.85147 -15.02565,5.95027 2.26332,1.27907 4.27866,2.16981 5.99907,3.45529 1.99006,1.48699 3.62925,3.43625 5.57922,4.9854 9.31247,7.39813 9.32922,7.37114 18.67634,-0.0927 3.15438,-2.51882 6.25971,-3.16196 10.056,-0.85253 3.32953,2.0255 7.08118,3.40271 10.73938,4.82747 2.7629,1.07608 5.67257,1.77529 9.55281,2.95795 -1.73287,1.31956 -2.23049,2.02605 -2.71369,2.01633 -5.46915,-0.11013 -5.57088,2.41215 -3.89762,6.70219 0.42046,1.07797 -1.28035,3.98489 -2.64575,4.57719 -4.83847,2.09888 -10.84169,0.0642 -15.30252,4.06816 -0.34407,0.30887 -1.30093,0.0322 -1.94472,-0.10495 -6.75932,-1.44012 -12.91697,0.26415 -18.58561,3.83169 -4.09567,2.57759 -8.10695,4.72743 -12.05087,2.30613 -1.96249,1.52214 -3.4977,3.65351 -4.6972,3.47887 -4.95314,-0.72104 -9.777196,-2.28677 -14.71056,-3.21224 -1.420876,-0.26652 -3.190888,0.31064 -4.513504,1.02956 -0.542534,0.29492 -0.324685,1.98871 -0.452744,3.04614 1.655975,0.13222 3.313858,0.37847 4.967171,0.35096 0.893814,-0.0149 1.779846,-0.49724 2.669395,-0.76871 0.383141,0.29178 0.766281,0.58356 1.14943,0.87533 -1.292626,2.22718 -2.358529,4.63372 -3.939774,6.63257 -1.679276,2.12282 -3.847397,3.85895 -5.801712,5.76323 3.28e-4,-7e-4 -0.0012,5.2e-4 -0.06087,-0.30189 -1.080788,-3.13625 -2.473915,-2.26613 -4.250382,-0.79938 -4.805656,-1.68961 -9.298691,-3.27181 -14.148117,-4.90071 -6.927555,-3.68863 -13.49836,-7.33118 -20.069946,-10.97228 -9.100414,-5.0422 -18.201428,-10.08331 -27.302183,-15.12489 -0.523745,-4.242 2.936298,-4.90875 6.190763,-6.57135 4.549618,-2.69095 8.533459,-5.07829 12.517304,-7.46564 0,0 0.123756,0.13544 0.358665,0.38291 0.741837,-0.32291 1.248768,-0.8933 1.755695,-1.46367 0,0 -0.01056,0.11809 0.206456,0.32606 0.750709,-0.17723 1.284412,-0.56242 1.818115,-0.94761 z"
   id="path2" />
<path
   fill="#96b93d"
   opacity="1"
   stroke="none"
   d="m 309.99048,149.99324 c -1.36148,-1.04012 -2.72296,-2.08023 -4.68814,-3.58157 -0.51248,9.45643 -1.7598,11.24131 -8.98444,12.06622 -2.12921,0.2431 -4.97131,-0.63812 -6.59958,-2.03682 -6.15579,-5.28793 -6.01934,-5.44678 -13.4808,-6.46709 -1.53232,-2.00747 2.82434,-6.57374 -2.55838,-6.87925 -2.67014,-0.15157 -5.41593,0.50766 -8.08673,1.01466 -3.78836,0.71916 -6.83805,2.11589 -7.21003,6.83682 -0.0622,0.78862 -3.66769,2.30336 -5.02806,1.80922 -5.69854,-2.06991 -11.37059,-4.4134 -16.64163,-7.38515 -3.21264,-1.81126 -5.65275,-2.37393 -9.23558,-0.9897 -2.35322,0.90914 -5.47874,-0.11003 -8.24858,-0.37036 -2.63109,-0.24728 -5.24399,-0.82663 -7.87482,-0.89898 -2.60605,-0.0717 -5.235,0.55264 -7.83544,0.44114 -6.78036,-0.29074 -13.08668,0.65399 -18.90957,4.62155 -5.36264,3.65397 -11.00686,6.16526 -18.10669,5.33629 -4.58821,-0.53569 -9.52656,0.97171 -14.17241,2.1147 -6.5857,1.62021 -13.04647,3.74819 -19.56063,5.65926 -0.31868,0.0935 -0.69591,0.3497 -0.94704,0.25838 -6.87146,-2.49877 -13.20269,2.29914 -20.81538,1.45745 -3.62864,-0.33717 -6.38402,-0.67453 -9.93875,-1.10975 1.16252,-1.65465 1.41069,-2.33814 1.89707,-2.64945 5.27579,-3.37663 10.65449,-6.59758 15.84723,-10.09538 1.34686,-0.90724 2.14386,-2.63078 3.19342,-3.97938 10.22039,-6.10816 20.37839,-12.32383 30.67476,-18.30108 18.77129,-10.89712 37.66155,-21.58942 56.42526,-32.499415 7.33832,-4.266792 14.38831,-9.028458 21.71355,-13.31897 11.38039,-6.66568 22.90526,-13.084145 34.32749,-19.679077 7.36389,-4.251747 14.72503,-8.516548 21.95401,-12.991032 5.69088,-3.522464 11.51596,-2.448898 16.72821,0.106449 28.78073,14.110047 57.38928,28.571366 86.05829,42.909356 20.66763,10.336339 41.29275,20.759089 62.02453,30.965189 11.08383,5.45652 22.35831,10.52542 33.53058,15.80348 1.01114,0.47769 1.90369,1.2065 3.39075,2.04565 0.77389,0.42028 1.01974,0.59787 1.27694,0.75974 0,0 -0.065,0.003 -0.0544,0.34167 0.0106,1.90894 0.0106,3.47927 0.0106,3.85494 -4.28275,1.15971 -7.59381,2.11719 -10.93695,2.94525 -3.67243,0.90959 -7.5668,2.63329 -9.5076,-2.82962 -0.33954,-0.9557 -1.89056,-1.88191 -3.01886,-2.09407 -10.56875,-1.98741 -21.14761,-3.94425 -31.77432,-5.58029 -2.0643,-0.31784 -5.12927,0.10797 -6.302,1.44531 -1.07782,1.22914 -0.866,4.41634 -0.0916,6.268 1.54938,3.70466 -0.0336,4.65439 -3.15658,4.57195 -1.60004,-0.0422 -3.23926,-0.56549 -4.76374,-1.13232 -4.30462,-1.60057 -7.60037,-6.88503 -13.30755,-3.51345 -0.36423,0.21518 -1.538,-0.9899 -2.36063,-1.49257 -4.62347,-2.82512 -10.29077,-3.53254 -14.49624,-7.36825 -0.88572,-0.80779 -4.01828,-0.74359 -4.70987,0.0879 -4.20438,5.05503 -12.21091,0.43381 -15.8223,6.48049 -6.29929,-1.85956 -11.99167,0.26434 -17.87936,2.24924 -3.75629,1.26634 -7.94599,1.24711 -11.94135,1.80429 -3.26047,-0.11333 -6.53021,-0.11576 -9.77747,-0.38712 -1.6047,-0.13411 -3.16799,-0.76414 -3.81039,-0.92886 -5.63321,1.54194 -10.6214,2.90735 -16.00943,4.29207 -0.39981,0.0193 -0.40933,0.0123 -0.40933,0.0123 z"
   id="path3" />
<path
   fill="#91b83d"
   opacity="1"
   stroke="none"
   d="m 340.15344,147.29266 c 3.83902,-0.84503 8.02872,-0.8258 11.78501,-2.09214 5.88769,-1.9849 11.58007,-4.1088 17.87936,-2.24924 3.61139,-6.04668 11.61792,-1.42546 15.8223,-6.48049 0.69159,-0.83149 3.82415,-0.89569 4.70987,-0.0879 4.20547,3.83571 9.87277,4.54313 14.49624,7.36825 0.82263,0.50267 1.9964,1.70775 2.36063,1.49257 5.70718,-3.37158 9.00293,1.91288 13.30755,3.51345 1.52448,0.56683 3.1637,1.09008 4.76374,1.13232 3.12301,0.0824 4.70596,-0.86729 3.15658,-4.57195 -0.77441,-1.85166 -0.98623,-5.03886 0.0916,-6.268 1.17273,-1.33734 4.2377,-1.76315 6.302,-1.44531 10.62671,1.63604 21.20557,3.59288 31.77432,5.58029 1.1283,0.21216 2.67932,1.13837 3.01886,2.09407 1.9408,5.46291 5.83517,3.73921 9.5076,2.82962 3.34314,-0.82806 6.6542,-1.78554 10.93695,-2.94525 0,-0.37567 0,-1.946 -0.005,-3.88692 8.21445,3.43491 16.47925,7.14531 24.64191,11.06831 12.06903,5.80048 24.06189,11.75948 36.09399,17.63712 12.16113,5.94067 24.33057,11.86444 36.6778,18.30037 -1.27283,2.91 -1.92066,5.05698 0.24749,7.70245 0.90705,1.10666 0.25336,3.49244 0.30927,5.29663 -0.30194,0.379 -0.60394,0.758 -1.38446,1.43676 -2.28851,1.11123 -4.16766,1.7976 -5.89746,2.75402 -13.23712,7.31894 -26.49304,14.60592 -39.65308,22.06183 -36.44247,20.64678 -72.8226,41.40361 -109.26883,62.04375 -10.53039,5.96353 -21.20108,11.67935 -31.80743,17.50873 -1.86054,0.10028 -3.72104,0.20053 -6.74957,0.36374 0.6412,-2.71909 0.92862,-5.71591 2.07531,-8.33679 1.33948,-3.06153 5.08616,-5.56818 2.67569,-9.36133 -2.5018,-3.93674 -6.18005,-5.97672 -11.68325,-3.21512 0.23681,-6.75412 -3.38941,-8.81186 -8.8722,-8.62848 -0.16446,0.006 -0.41964,0.0262 -0.48312,-0.0646 -4.37003,-6.25271 -12.35242,-5.57913 -18.25955,-8.87554 -0.087,-0.55222 -0.17408,-1.10444 -0.26111,-1.65665 8.62762,-4.14813 17.28601,-8.23493 25.84198,-12.52599 1.01108,-0.50709 1.79629,-2.05296 2.08746,-3.26155 0.38303,-1.5899 -0.28329,-4.57188 0.29462,-4.78285 2.8483,-1.03972 6.212,-2.34236 8.90225,-1.64793 2.46823,0.6371 3.71851,0.36322 5.68912,-0.86977 4.43823,-2.77693 8.99093,-5.48863 13.80029,-7.5027 2.24808,-0.94144 5.20703,-0.0922 7.82977,-0.26599 1.64405,-0.10891 4.24451,-0.0908 4.736,-1.01899 3.87365,-7.31668 11.87533,-3.81697 17.25702,-6.9398 1.70181,-0.98749 3.78976,-1.55902 5.11407,-2.90039 3.89435,-3.94446 7.50455,-8.17039 11.19519,-12.31355 0.43103,-0.4839 1.0639,-1.25092 0.93744,-1.69858 -1.72632,-6.10951 1.89374,-10.52953 4.56744,-15.30409 0.51249,-0.91513 0.20768,-2.28792 0.69892,-3.86418 1.80783,-0.41571 3.19674,-0.41681 4.90817,-0.278 3.90854,1.8247 7.40811,3.75431 11.12546,5.06721 1.38116,0.48781 3.27267,-0.46928 4.93146,-0.76749 -0.54645,-1.77049 -0.57291,-4.05702 -1.72925,-5.22224 -5.03244,-5.07098 -5.15192,-4.95242 -2.35315,-11.10323 -0.87872,-0.36398 -1.94809,-0.51394 -2.58472,-1.11912 -3.59418,-3.41661 -8.04224,-6.40912 -10.3595,-10.57063 -2.69256,-4.83545 -4.84738,-7.07027 -10.49551,-6.94648 -3.54874,0.0778 -7.12759,-0.70512 -10.6741,-1.22949 -2.21402,-0.32733 -4.39929,-1.31189 -6.58658,-1.27901 -10.39435,0.15636 -20.82932,1.71151 -30.8906,-2.7677 -2.168,-0.96514 -5.1163,-0.17759 -8.03869,-0.19731 -0.7782,5.5e-4 -1.22287,10e-4 -1.66757,10e-4 -4.21451,-1.73784 -8.31107,-3.95314 -12.68778,-5.03433 -2.62427,-0.64827 -5.68057,0.54162 -8.55289,0.78529 -3.39492,0.28798 -6.82534,0.26352 -10.19482,0.71463 -3.12155,0.41789 -6.19077,1.25121 -9.26819,1.96551 -1.89532,0.43995 -3.78012,1.47844 -5.63943,1.41129 -4.61002,-0.16647 -9.2027,-0.81355 -13.25012,-1.21307 -1.12696,-2.56614 -2.11188,-4.80889 -3.25312,-7.33953 z"
   id="path4" />
<path
   fill="#7a611b"
   opacity="1"
   stroke="none"
   d="m 399.76443,307.31317 c 10.86252,-6.05655 21.53321,-11.77237 32.0636,-17.7359 36.44623,-20.64014 72.82636,-41.39697 109.26883,-62.04375 13.16004,-7.45591 26.41596,-14.74289 39.65308,-22.06183 1.7298,-0.95642 3.60895,-1.64279 5.77521,-2.53596 1.66113,3.65535 -0.11756,8.08308 -3.64179,10.25519 -17.05072,10.50885 -33.93555,21.29677 -51.16998,31.49417 -10.32562,6.10951 -21.28516,11.13664 -31.78311,16.9682 -17.45792,9.69778 -34.81284,19.58316 -52.14084,29.51218 -29.46665,16.88455 -58.81693,33.97299 -88.34043,50.75705 -14.24603,8.09881 -28.73825,15.76873 -43.19934,23.48224 -4.01016,2.13894 -8.30807,3.7384 -12.80288,5.10928 -0.353,-2.4747 -0.37714,-4.47333 -0.30823,-6.7746 0.42456,-1.07434 0.75613,-1.84598 1.34582,-2.78418 0.86225,-0.72467 1.46637,-1.28278 2.38068,-1.84308 1.27304,-0.69021 2.23593,-1.3782 3.53497,-2.09646 1.0958,-0.69174 1.85544,-1.35318 2.8898,-2.08664 3.47382,-1.61658 6.67289,-3.16114 9.87198,-4.70566 0.41001,-0.0762 0.81998,-0.15237 1.8863,-0.30652 3.8182,-1.84463 6.99679,-3.58212 10.13903,-5.38306 13.44489,-7.70584 26.87906,-15.43036 40.31714,-23.14807 8.00134,-4.61517 16.00266,-9.23031 24.26016,-14.0726 z"
   id="path5" />
<path
   fill="#aea94f"
   opacity="1"
   stroke="none"
   d="m 303.04553,364.04211 c 0.0241,1.9986 0.0482,3.99723 0.0106,6.41916 -12.11969,-6.43768 -24.20142,-13.25711 -36.2287,-20.17129 -12.0061,-6.9021 -23.95868,-13.89734 -35.93278,-20.85511 -10.02137,-5.82302 -20.00968,-11.70367 -30.0661,-17.46548 -19.22367,-11.01428 -38.53202,-21.88135 -57.72014,-32.95694 -26.94306,-15.55179 -53.77672,-31.29314 -80.722521,-46.84015 -11.07291,-6.38879 -22.242943,-12.61949 -33.519781,-18.63927 -4.135,-2.2073 -7.049067,-4.60226 -5.765244,-10.19267 9.168108,4.60277 18.269122,9.64388 27.369536,14.68608 6.571586,3.6411 13.142391,7.28365 20.231651,11.26207 7.311676,4.40114 14.082405,8.50457 20.904083,12.52146 10.707496,6.30499 21.444546,12.55986 32.178156,18.82037 8.87778,5.17807 17.69388,10.4682 26.67525,15.46054 8.68259,4.8262 17.72609,9.02072 26.28649,14.04566 21.51109,12.62689 42.82011,25.59768 64.27002,38.32974 2.08169,1.23562 4.58004,1.76928 7.07765,2.88247 2.39609,1.39792 4.5995,2.54218 6.98379,3.91462 0.777,0.71545 1.37314,1.20272 2.21195,1.91607 2.03634,1.12015 3.82999,2.01429 5.76822,3.19947 1.41107,1.06735 2.67755,1.84359 4.2481,2.80456 4.76862,2.73596 9.23313,5.28723 13.94574,8.00577 1.08747,0.71039 1.92679,1.25348 3.04596,1.98648 6.43592,3.74869 12.59201,7.30753 18.74811,10.86639 z"
   id="path6" />
<path
   fill="#91b53e"
   opacity="1"
   stroke="none"
   d="m 121.65713,145.20641 c -0.70117,1.30824 -1.49817,3.03178 -2.84503,3.93902 -5.19274,3.4978 -10.57144,6.71875 -15.84723,10.09538 -0.48638,0.31131 -0.73455,0.9948 -1.89707,2.64945 3.55473,0.43522 6.31011,0.77258 9.49701,1.11012 -2.9117,5.48308 -8.20899,2.41593 -12.618544,2.66817 -1.226715,0.0702 -2.609093,-2.58075 -3.95137,-4.38165 9.083744,-5.61228 18.198804,-10.82621 27.662234,-16.08049 z"
   id="path7" />
<path
   fill="#aaa854"
   opacity="1"
   stroke="none"
   d="m 588.39105,201.14351 c -0.4151,-1.66679 0.23859,-4.05257 -0.66846,-5.15923 -2.16815,-2.64547 -1.52032,-4.79245 0.0498,-7.51539 5.38647,3.3719 5.60284,6.59858 0.61871,12.67462 z"
   id="path8" />
<path
   fill="#eff1e5"
   opacity="1"
   stroke="none"
   d="m 41.511707,188.92068 c -3.619308,2.33123 -7.603149,4.71857 -11.964573,7.10831 3.61496,-2.34915 7.607499,-4.70068 11.964573,-7.10831 z"
   id="path9" />
<path
   fill="#eff1e5"
   opacity="1"
   stroke="none"
   d="m 45.696434,187.08136 c -0.214962,0.46608 -0.748665,0.85127 -1.558414,1.02307 0.22919,-0.51022 0.734432,-0.80708 1.558414,-1.02307 z"
   id="path10" />
<path
   fill="#eff1e5"
   opacity="1"
   stroke="none"
   d="m 43.679359,187.87241 c -0.195682,0.48176 -0.702613,1.05215 -1.50645,1.30761 0.200466,-0.61627 0.697834,-0.91763 1.50645,-1.30761 z"
   id="path11" />
<path
   fill="#91b83d"
   opacity="1"
   stroke="none"
   d="m 490.01801,140.72409 c -0.16532,0.0804 -0.41117,-0.0972 -0.81769,-0.43875 0.12722,-0.0333 0.42651,0.0816 0.81769,0.43875 z"
   id="path12" />
<path
   fill="#8cb536"
   opacity="1"
   stroke="none"
   d="m 281.00339,351.02194 c -4.46454,-2.55124 -8.92905,-5.10251 -13.57755,-8.10031 -0.14734,-3.92529 -2.09717,-3.80191 -4.51282,-2.8338 -1.79363,-0.8941 -3.58728,-1.78824 -5.58413,-3.13794 -0.94626,-0.94199 -1.68929,-1.42835 -2.43231,-1.91473 -2.20342,-1.14423 -4.40683,-2.28849 -6.56531,-3.93604 0.95518,-1.18597 2.33529,-2.6542 2.70497,-2.4331 5.28532,3.16134 9.57649,-0.29163 14.1552,-1.84733 0.1849,-0.0628 0.5263,0.3349 1.06115,0.69977 -0.18161,0.65253 -0.18023,1.57059 -0.63162,2.10941 -1.91726,2.28863 -3.45679,4.73971 0.56397,6.05188 2.96243,0.96677 6.16897,5.99566 9.48767,-0.0591 0.91867,-1.67606 3.50497,-2.43808 5.41589,-3.29578 1.05237,1.36694 2.01498,2.41019 2.9776,3.45343 0.38294,-0.42297 0.76584,-0.84595 1.14877,-1.26889 -1.07162,-1.16983 -2.14325,-2.33963 -3.35135,-3.87387 -0.88781,-4.84238 -2.76663,-9.09479 0.50092,-13.7338 1.89111,-2.68484 2.62415,-6.57544 2.81644,-9.98327 0.36853,-6.53107 2.04693,-10.72812 9.12372,-9.94779 1.80816,0.19937 3.65896,10e-4 5.49011,0.006 4.26352,0.0105 6.03604,-1.47824 5.92236,-6.33841 -0.11499,-4.91706 -0.54666,-8.15332 -6.40652,-7.94852 -0.74961,0.0261 -1.53937,-1.09649 -2.40244,-1.89126 -0.69852,-0.40168 -1.30511,-0.59897 -2.29846,-0.88593 -2.02097,-0.3938 -3.64868,-0.74033 -5.29083,-0.99313 -3.41764,-0.52616 -6.96292,-0.88752 -5.34601,-5.79038 -4.73081,-1.82632 -7.72742,-6.61377 -13.34613,-5.93216 -0.74674,0.0906 -1.62314,-2.29004 -2.70337,-3.21963 -1.65167,-1.42139 -3.58927,-3.74072 -5.30789,-3.65775 -12.75247,0.61569 -22.71985,-7.68771 -34.41602,-10.2946 -2.24965,-0.5014 -4.44704,-1.30144 -6.60165,-2.13628 -0.98311,-0.38093 -2.18488,-0.98037 -2.63132,-1.82681 -1.8479,-3.50346 -7.26729,-5.56473 -10.78694,-5.53277 -4.92911,0.0447 -9.88043,-1.11066 -14.80094,-1.88764 -2.48114,-0.39178 -4.91535,-1.08086 -7.50303,-1.89601 -0.71233,-0.7543 -1.29239,-1.24811 -2.19968,-1.90614 -3.59154,0.59658 -6.8412,1.43061 -10.12614,2.08853 -1.73673,0.34784 -3.57291,0.70779 -5.29735,0.50212 -3.54886,-0.42331 -7.03391,-1.58214 -10.58044,-1.76885 -3.70501,-0.19506 -7.45141,0.39635 -11.17971,0.64397 -0.70012,-0.49721 -0.83673,0.48497 -1.28088,1.29941 -1.84114,3.37601 -4.91962,4.31947 -8.02425,2.55269 -3.69624,-2.10343 -0.24577,-4.14905 0.79061,-6.06345 0.6273,-1.15878 1.58622,-2.13382 2.34954,-3.22404 1.49302,-2.13245 1.11313,-4.12653 -1.40914,-4.62009 -4.92554,-0.96379 -9.96579,-2.0307 -14.92851,-1.90149 -4.11727,0.10718 -8.22957,2.82198 -12.27516,2.66002 -5.17843,-0.20732 -8.06871,1.65701 -10.41062,5.87617 -0.91989,1.65728 -2.839969,2.75939 -4.154162,3.86794 0.371681,-1.16119 0.592956,-2.07602 0.814224,-2.99083 -0.815941,-0.66653 -1.631882,-1.33307 -2.447823,-1.99959 -0.839027,1.7464 -1.678054,3.49282 -2.862358,5.21662 -1.448295,-0.67395 -2.551315,-1.32526 -3.654327,-1.97658 1.954643,-1.905 4.122764,-3.64113 5.80204,-5.76395 1.581245,-1.99885 2.647148,-4.40539 3.939774,-6.63257 -0.383149,-0.29177 -0.766289,-0.58355 -1.14943,-0.87533 -0.889549,0.27147 -1.775581,0.75384 -2.669395,0.76871 -1.653313,0.0275 -3.311196,-0.21874 -4.967171,-0.35096 0.128059,-1.05743 -0.08979,-2.75122 0.452744,-3.04614 1.322616,-0.71892 3.092628,-1.29608 4.513504,-1.02956 4.933364,0.92547 9.75742,2.4912 14.71056,3.21224 1.1995,0.17464 2.73471,-1.95673 4.6972,-3.47887 3.94392,2.4213 7.9552,0.27146 12.05087,-2.30613 5.66864,-3.56754 11.82629,-5.27181 18.58561,-3.83169 0.64379,0.13717 1.60065,0.41382 1.94472,0.10495 4.46083,-4.00399 10.46405,-1.96928 15.30252,-4.06816 1.3654,-0.5923 3.06621,-3.49922 2.64575,-4.57719 -1.67326,-4.29004 -1.57153,-6.81232 3.89762,-6.70219 0.4832,0.01 0.98082,-0.69677 2.71369,-2.01633 -3.88024,-1.18266 -6.78991,-1.88187 -9.55281,-2.95795 -3.6582,-1.42476 -7.40985,-2.80197 -10.73938,-4.82747 -3.79629,-2.30943 -6.90162,-1.66629 -10.056,0.85253 -9.34712,7.46382 -9.36387,7.49081 -18.67634,0.0927 -1.94997,-1.54915 -3.58916,-3.49841 -5.57922,-4.9854 -1.72041,-1.28548 -3.73575,-2.17622 -5.99907,-3.45529 5.2999,-2.0988 9.82448,-3.89056 15.02565,-5.95027 -0.13951,-0.19391 0.44481,0.7259 1.13495,1.55795 2.32907,2.80797 4.96211,2.56763 6.70286,-0.57812 2.85585,-5.16085 13.09265,-9.24146 18.81084,-7.26935 3.28676,1.13356 6.39627,2.77221 9.61874,4.10315 5.19208,2.14439 7.46074,0.97046 10.38521,-3.41371 1.20305,-1.80355 4.3472,-3.31438 6.57005,-3.26409 10.23639,0.23163 20.46576,0.97681 30.67992,1.76706 1.52153,0.11772 2.94868,1.45563 4.41949,2.22904 -1.31932,1.2816 -2.42593,3.07603 -4.00514,3.73104 -2.73607,1.13486 -5.81643,1.40894 -8.64999,2.35181 -1.50859,0.502 -2.80251,1.64908 -4.19333,2.50497 0.13833,0.44883 0.27666,0.89763 0.41499,1.34644 4.8414,0 9.68993,-0.16359 14.52219,0.0466 4.71217,0.20497 9.41743,0.71489 14.09921,1.3022 0.63554,0.0797 1.71181,1.52266 1.57907,2.1055 -1.53464,6.73808 4.08454,8.16464 8.01117,9.22998 3.51682,0.95413 6.21272,1.31461 6.78203,5.39969 0.0593,0.42564 0.95024,0.73538 1.88893,1.41099 0.33574,-1.24984 0.67966,-2.08975 0.7746,-2.9569 0.51748,-4.72684 2.2922,-5.88529 6.45878,-3.89273 3.70566,1.77214 7.12178,2.8927 10.18361,-1.19056 0.49643,-0.66203 2.46826,-1.11094 3.03403,-0.68853 5.21594,3.89428 8.65253,0.54751 12.11169,-2.7517 2.21021,-2.108 4.37085,-4.1665 8.11786,-2.22328 -0.35144,0.82994 -0.51944,1.62439 -0.96255,2.21107 -4.04535,5.35633 -2.56601,14.14728 3.06463,17.70934 3.77268,2.38669 7.59488,4.69492 11.39087,7.04477 4.07599,2.52316 4.12555,3.77136 0.87979,7.03511 -1.72531,1.73488 -3.08651,3.86368 -4.44375,5.92546 -2.13208,3.23882 -4.35614,4.96283 -8.09458,1.91892 -1.12457,-0.91567 -3.026,-1.19806 -4.57681,-1.21261 -5.96835,-0.056 -11.93994,0.20551 -17.90768,0.13251 -1.40387,-0.0172 -3.10999,-0.5161 -4.1456,-1.40945 -7.36832,-6.35625 -16.13289,-6.29312 -25.1109,-6.13936 -5.24819,0.0899 -10.50952,-1.06686 -15.77208,-1.13852 -2.69654,-0.0367 -5.38697,1.23558 -8.12194,1.61549 -1.69169,0.23499 -3.53372,-0.43316 -5.17811,-0.0836 -1.91164,0.40633 -3.68099,1.48213 -5.51207,2.26738 1.4167,1.00754 2.70705,2.51961 4.27757,2.91289 2.87456,0.71985 5.95381,0.59083 8.86798,1.19827 1.31102,0.27327 3.12377,1.20883 3.52373,2.28452 2.55562,6.87342 8.17686,7.62727 14.24841,7.53868 6.37314,-0.093 11.62857,3.76149 13.57297,9.60334 0.5506,1.65421 2.11742,3.77723 3.60996,4.16082 4.63285,1.19066 9.46911,1.56469 14.19796,2.41406 4.87897,0.87633 9.93409,1.38956 14.50315,3.13329 2.58017,0.98468 4.88711,3.81858 6.32312,6.37736 1.74536,3.11002 3.63809,4.5914 7.29409,4.87802 4.62751,0.36282 9.4228,1.02612 13.71308,2.68131 6.56769,2.53372 12.83163,5.90106 19.0708,9.20486 1.4292,0.75684 3.20151,2.7356 3.14575,4.08289 -0.18103,4.37689 1.9382,4.97433 5.27191,3.93966 3.7283,-1.15707 6.81085,-0.63125 9.60895,2.97422 -7.26504,3.3479 -14.35471,6.61499 -21.57678,9.94308 1.11127,1.2171 2.4505,2.68384 4.68756,5.13391 -3.49982,0.28647 -5.7128,0.52216 -7.93201,0.63855 -5.62454,0.29508 -9.49679,4.27731 -9.65469,9.91208 -0.0553,1.97403 0.42117,4.40402 -0.53012,5.84186 -7.39157,11.17184 -0.50122,20.05139 4.58963,29.07956 0.77115,1.36761 3.63013,1.79706 5.61539,2.16748 1.6755,0.31268 3.48449,-0.09 5.557,0.0178 -2.87646,1.73837 -6.07553,3.28293 -9.8515,4.91263 -1.35919,0.75799 -2.14151,1.43088 -2.92383,2.10379 -0.96286,0.68799 -1.92575,1.37598 -3.57696,2.0206 -2.31592,-0.37793 -3.94352,-0.71256 -5.57108,-1.04715 -0.11774,0.33533 -0.23547,0.67065 -0.35321,1.00598 1.22122,0.69879 2.44248,1.39762 3.66367,2.09641 -0.33158,0.77163 -0.66315,1.54327 -1.08771,2.61761 -6.24912,-3.25619 -12.40521,-6.81503 -18.58551,-10.70618 0.78131,-0.42257 1.62628,-0.71466 2.38513,-0.56622 2.50708,0.4903 4.98306,1.13968 7.47098,1.728 -0.1449,-2.5669 -0.2908,-5.1337 -0.43222,-7.70078 -0.009,-0.16504 0.0165,-0.33194 0.27954,-0.7341 0.27872,-2.09872 0.30395,-3.96136 0.32919,-5.82397 -1.52823,1.01681 -3.05646,2.03363 -5.0253,3.05179 -9.04647,0.0783 -9.84585,0.86944 -8.55697,8.03396 M 241.59708,208.9519 c -1.62305,0 -3.2461,0 -4.86916,0 -0.0513,0.50452 -0.10252,1.00902 -0.15379,1.51354 5.68722,3.87352 12.08336,4.57381 18.90593,3.50978 4.63279,-0.72252 4.69581,-4.38637 4.32298,-7.58022 -0.23996,-2.05517 -2.07062,-3.92462 -3.18832,-5.87733 -2.59945,1.52113 -6.98351,2.63679 -7.43976,4.64488 -1.0643,4.68434 -3.47997,4.50066 -7.57788,3.78935 m -67.9805,-30.4635 c -1.1451,0.18039 -2.45018,0.0715 -3.40348,0.59874 -2.30058,1.27237 -4.63321,2.6387 -6.49684,4.43923 -0.44851,0.4333 0.74556,3.85014 1.41149,3.92704 2.60992,0.30141 5.31787,-0.12257 7.97212,-0.42762 0.56366,-0.0648 0.99675,-0.94101 1.59042,-1.13327 1.48816,-0.48189 3.02947,-0.80521 4.55774,-1.15606 1.41477,-0.32476 2.84027,-0.60272 4.26105,-0.90129 -0.70311,-1.56305 -1.01758,-3.951 -2.19563,-4.50599 -2.03557,-0.95905 -4.60726,-0.78012 -7.69687,-0.84078 m 29.72667,11.77024 c 2.78505,-4.86106 -1.67785,-6.16468 -4.28717,-7.60138 -3.83768,-2.11298 -8.74886,-0.40953 -9.69501,2.88897 -0.46884,1.63449 -0.77966,4.03531 0.0729,5.10839 0.7326,0.92216 3.22525,0.61253 4.93034,0.55792 2.78325,-0.0891 5.55893,-0.41394 8.97898,-0.9539 m 2.4403,6.83763 c -1.56428,-3.70464 -3.42526,-4.03701 -8.33447,-0.11866 3.45007,0.23566 5.63358,0.38482 8.33447,0.11866 m -14.58546,15.89467 c -1.85993,0 -3.71985,0 -5.57979,0 -0.008,0.82258 -0.0152,1.64515 -0.0228,2.46774 2.44228,0 4.88454,0 7.32681,0 -0.34562,-0.79657 -0.69125,-1.59313 -1.72427,-2.46774 m -58.70757,-31.59681 c -0.66377,-0.554 -1.32754,-1.108 -1.9913,-1.662 -0.17589,0.71346 -0.35176,1.42691 -0.52765,2.14035 0.82094,0.0205 1.64189,0.041 2.51895,-0.47835 m 48.66036,19.70147 c -0.11482,-0.0233 -0.22966,-0.0466 -0.34448,-0.0699 0.0788,0.0545 0.15763,0.1089 0.34448,0.0699 z"
   id="path13" />
<path
   fill="#8ab534"
   opacity="1"
   stroke="none"
   d="m 186.00777,237.00552 c 2.45543,0.55464 4.88964,1.24372 7.37078,1.6355 4.92051,0.77698 9.87183,1.93237 14.80094,1.88764 3.51965,-0.032 8.93904,2.02931 10.78694,5.53277 0.44644,0.84644 1.64821,1.44588 2.63132,1.82681 2.15461,0.83484 4.352,1.63488 6.60165,2.13628 11.69617,2.60689 21.66355,10.91029 34.41602,10.2946 1.71862,-0.083 3.65622,2.23636 5.30789,3.65775 1.08023,0.92959 1.95663,3.31024 2.70337,3.21963 5.61871,-0.68161 8.61532,4.10584 13.34613,5.93216 -1.61691,4.90286 1.92837,5.26422 5.34601,5.79038 1.64215,0.2528 3.26986,0.59933 5.5234,1.15176 1.13211,0.47611 1.64496,0.70389 2.15778,0.93164 0.77118,0.59043 1.56094,1.71307 2.31055,1.68692 5.85986,-0.2048 6.29153,3.03146 6.40652,7.94852 0.11368,4.86017 -1.65884,6.34891 -5.92236,6.33841 -1.83115,-0.005 -3.68195,0.19378 -5.49011,-0.006 -7.07679,-0.78033 -8.75519,3.41672 -9.12372,9.94779 -0.19229,3.40783 -0.92533,7.29843 -2.81644,9.98327 -3.26755,4.63901 -1.38873,8.89142 -0.66125,13.90714 -0.24222,0.76474 -0.46906,0.98294 -0.70441,1.19232 -1.8212,1.18137 -4.4075,1.94339 -5.32617,3.61945 -3.3187,6.05474 -6.52524,1.02585 -9.48767,0.0591 -4.02076,-1.31217 -2.48123,-3.76325 -0.56397,-6.05188 0.45139,-0.53882 0.45001,-1.45688 0.63162,-2.10941 -0.53485,-0.36487 -0.87625,-0.7626 -1.06115,-0.69977 -4.57871,1.5557 -8.86988,5.00867 -14.1552,1.84733 -0.36968,-0.2211 -1.74979,1.24713 -2.89766,2.17944 -2.54253,-0.6099 -5.04088,-1.14356 -7.12257,-2.37918 -21.44991,-12.73206 -42.75893,-25.70285 -64.27002,-38.32974 -8.5604,-5.02494 -17.6039,-9.21946 -26.28649,-14.04566 -8.98137,-4.99234 -17.79747,-10.28247 -26.67525,-15.46054 -10.73361,-6.26051 -21.47066,-12.51538 -32.178156,-18.82037 -6.821678,-4.01689 -13.592407,-8.12032 -20.547683,-12.47473 4.331321,1.29238 8.824356,2.87458 13.935356,4.7277 1.746895,0.49339 2.875824,0.71584 4.004753,0.93828 0,0 0.0015,-0.001 0.0012,-5.2e-4 1.102684,0.65204 2.205704,1.30335 4.054069,1.97754 1.812073,0.0219 2.878777,0.0209 3.945488,0.0199 1.464592,-1.35492 3.384673,-2.45703 4.304563,-4.11431 2.34191,-4.21916 5.23219,-6.08349 10.41062,-5.87617 4.04559,0.16196 8.15789,-2.55284 12.27516,-2.66002 4.96272,-0.12921 10.00297,0.9377 14.92851,1.90149 2.52227,0.49356 2.90216,2.48764 1.40914,4.62009 -0.76332,1.09022 -1.72224,2.06526 -2.34954,3.22404 -1.03638,1.9144 -4.48685,3.96002 -0.79061,6.06345 3.10463,1.76678 6.18311,0.82332 8.02425,-2.55269 0.44415,-0.81444 0.58076,-1.79662 1.28088,-1.29941 3.7283,-0.24762 7.4747,-0.83903 11.17971,-0.64397 3.54653,0.18671 7.03158,1.34554 10.58044,1.76885 1.72444,0.20567 3.56062,-0.15428 5.29735,-0.50212 3.28494,-0.65792 6.5346,-1.49195 10.13896,-1.79727 0.99972,0.9288 1.65941,1.40208 2.31911,1.87539 z"
   id="path14" />
<path
   fill="#8db339"
   opacity="1"
   stroke="none"
   d="m 402.79034,156.29791 c 0.65415,-0.29551 1.09882,-0.29599 2.05329,0.008 5.14874,2.44149 9.75235,6.13175 14.43759,6.23842 3.93915,0.0897 7.49679,-0.65068 10.99905,1.78334 0.7891,0.54842 2.4159,0.55616 3.34836,0.13283 11.98489,-5.44081 20.69763,1.83948 29.68021,7.69644 1.01208,0.65993 1.63299,3.06159 1.32037,4.39397 -0.88327,3.76451 0.48587,5.79987 3.68808,7.64401 2.74921,1.58327 5.07477,3.9751 3.68271,7.80251 -1.38889,0.001 -2.7778,0.002 -4.58334,0.003 -3.5535,0.53851 -6.6782,1.17674 -9.83387,1.56016 -1.08178,0.13144 -2.33252,-0.16972 -3.35015,-0.62312 -6.78064,-3.02083 -11.28611,-1.99948 -13.94837,5.02058 -2.36667,6.24063 -3.43304,13.11362 -4.1405,19.80611 -0.746,7.05663 -0.25464,7.55765 -7.31833,7.69305 -8.59442,0.16478 -17.20429,-0.72746 -25.8093,-0.76783 -4.9306,-0.0231 -9.86087,0.79924 -14.79925,1.11682 -2.31748,0.14901 -4.71628,0.31311 -6.95444,-0.14051 -1.07165,-0.21716 -1.85513,-1.8562 -2.76913,-2.85127 0.95041,-0.79059 1.95468,-2.30606 2.84149,-2.24023 3.05545,0.22691 5.00561,-0.84482 5.30465,-3.83722 0.33298,-3.33139 1.56809,-7.80847 -0.0438,-9.82903 -2.9321,-3.67566 -1.79675,-5.52604 0.85959,-7.8237 1.50031,-1.2977 3.2738,-2.29315 4.69809,-3.66035 0.94281,-0.90505 1.48456,-2.22789 2.20584,-3.36371 -1.24176,-0.65202 -2.47091,-1.81848 -3.72787,-1.8492 -2.63611,-0.0644 -5.29474,0.73648 -7.92868,0.65874 -1.65573,-0.0489 -3.28345,-1.04767 -4.92374,-1.6203 0.86383,-1.65192 1.51239,-3.47585 2.65466,-4.90527 1.05048,-1.31458 2.6323,-2.20461 3.98001,-3.28167 -0.11877,-0.55693 -0.23755,-1.11386 -0.35635,-1.67079 -8.01688,0 -16.03378,0 -25.45264,0 1.71808,-2.26362 2.20716,-3.29471 3.01358,-3.90959 6.71161,-5.11755 13.37098,-10.31895 20.31281,-15.10844 1.71521,-1.18338 4.40201,-0.97446 6.64874,-1.36815 4.66474,-0.81748 9.33386,-1.60987 14.21063,-2.7076 z"
   id="path15" />
<path
   fill="#95b83c"
   opacity="1"
   stroke="none"
   d="m 375.25006,321.09256 c -13.18387,8.01092 -26.61804,15.73544 -40.06293,23.44128 -3.14224,1.80094 -6.32083,3.53843 -9.83166,5.32505 -1.61286,-4.14637 -1.9968,-8.02857 1.69086,-11.46805 1.00067,-0.93332 0.9421,-3.02393 1.32278,-4.59473 0.41815,-1.72552 0.19614,-4.31805 1.2681,-5.05368 5.50442,-3.77737 7.2854,-10.21628 11.36865,-14.92572 4.353,-5.02057 14.47711,-6.16635 20.06653,-2.48285 4.68551,3.08786 9.28555,6.30536 14.17767,9.7587 z"
   id="path16" />
<path
   fill="#8cb536"
   opacity="1"
   stroke="none"
   d="m 88.938805,234.69881 c -1.069214,0.08 -2.198143,-0.14248 -3.632416,-0.52845 1.158501,-1.73768 2.551628,-2.6078 3.632416,0.52845 z"
   id="path17" />
<path
   fill="#96b93d"
   opacity="1"
   stroke="none"
   d="m 310.00351,150.00503 c 0.004,0.005 -0.0631,0.024 -0.0381,0.006 0.025,-0.0179 0.0346,-0.0109 0.0381,-0.006 z"
   id="path18" />
<path
   fill="#8eb638"
   opacity="1"
   stroke="none"
   d="m 472.32254,192.13686 c 1.06952,-3.96732 -1.25604,-6.35915 -4.00525,-7.94242 -3.20221,-1.84414 -4.57135,-3.8795 -3.68808,-7.64401 0.31262,-1.33238 -0.30829,-3.73404 -1.32037,-4.39397 -8.98258,-5.85696 -17.69532,-13.13725 -29.68021,-7.69644 -0.93246,0.42333 -2.55926,0.41559 -3.34836,-0.13283 -3.50226,-2.43402 -7.0599,-1.69363 -10.99905,-1.78334 -4.68524,-0.10667 -9.28885,-3.79693 -14.1041,-6.23849 2.41263,-0.28427 5.36093,-1.07182 7.52893,-0.10668 10.06128,4.47921 20.49625,2.92406 30.8906,2.7677 2.18729,-0.0329 4.37256,0.95168 6.58658,1.27901 3.54651,0.52437 7.12536,1.30728 10.6741,1.22949 5.64813,-0.12379 7.80295,2.11103 10.49551,6.94648 2.31726,4.16151 6.76532,7.15402 10.3595,10.57063 0.63663,0.60518 1.706,0.75514 2.58472,1.11912 -2.79877,6.15081 -2.67929,6.03225 2.35315,11.10323 1.15634,1.16522 1.1828,3.45175 1.72925,5.22224 -1.65879,0.29821 -3.5503,1.2553 -4.93146,0.76749 -3.71735,-1.3129 -7.21692,-3.24251 -11.12546,-5.06721 z"
   id="path19" />
<path
   fill="#8eb638"
   opacity="1"
   stroke="none"
   d="m 304.48437,360.95526 c -1.4793,-0.53222 -2.70056,-1.23105 -3.92178,-1.92984 0.11774,-0.33533 0.23547,-0.67065 0.35321,-1.00598 1.62756,0.33459 3.25516,0.66922 5.2609,1.04941 -0.22596,0.60363 -0.83008,1.16174 -1.69233,1.88641 z"
   id="path20" />
<path
   fill="#8eb638"
   opacity="1"
   stroke="none"
   d="m 310.40002,357.01572 c 0.44614,-0.64264 1.22846,-1.31553 2.31293,-2.00153 -0.45749,0.64835 -1.21713,1.30979 -2.31293,2.00153 z"
   id="path21" />
<path
   fill="#8eb638"
   opacity="1"
   stroke="none"
   d="m 294.00296,345.99628 c -0.009,0.16604 -0.0351,0.33294 -0.026,0.49798 0.14142,2.56708 0.28732,5.13388 0.43222,7.70078 -2.48792,-0.58832 -4.9639,-1.2377 -7.47098,-1.728 -0.75885,-0.14844 -1.60382,0.14365 -2.66498,0.37634 -1.09494,-0.40066 -1.93426,-0.94375 -3.02173,-1.65414 -1.53695,-7.33182 -0.73757,-8.12296 8.42624,-7.88504 1.81369,1.10724 3.06949,1.89966 4.32526,2.69208 z"
   id="path22" />
<path
   fill="#8ab534"
   opacity="1"
   stroke="none"
   d="m 263.05762,340.37891 c 2.27105,-1.25919 4.22088,-1.38257 4.06414,2.358 -1.38659,-0.51441 -2.65307,-1.29065 -4.06414,-2.358 z"
   id="path23" />
<path
   fill="#8ab534"
   opacity="1"
   stroke="none"
   d="m 255.07745,335.26337 c 0.56215,0.25817 1.30518,0.74453 2.00873,1.46045 -0.63559,-0.25773 -1.23173,-0.745 -2.00873,-1.46045 z"
   id="path24" />
<path
   fill="#8eb638"
   opacity="1"
   stroke="none"
   d="m 241.97336,208.9942 c 3.72163,0.66901 6.1373,0.85269 7.2016,-3.83165 0.45625,-2.00809 4.84031,-3.12375 7.43976,-4.64488 1.1177,1.95271 2.94836,3.82216 3.18832,5.87733 0.37283,3.19385 0.30981,6.8577 -4.32298,7.58022 -6.82257,1.06403 -13.21871,0.36374 -18.90593,-3.50978 0.0513,-0.50452 0.10254,-1.00902 0.15379,-1.51354 1.62306,0 3.24611,0 5.24544,0.0423 z"
   id="path25" />
<path
   fill="#8eb638"
   opacity="1"
   stroke="none"
   d="m 173.98801,178.36949 c 2.71818,0.17957 5.28987,6.4e-4 7.32544,0.95969 1.17805,0.55499 1.49252,2.94294 2.19563,4.50599 -1.42078,0.29857 -2.84628,0.57653 -4.26105,0.90129 -1.52827,0.35085 -3.06958,0.67417 -4.55774,1.15606 -0.59367,0.19226 -1.02676,1.06849 -1.59042,1.13327 -2.65425,0.30505 -5.3622,0.72903 -7.97212,0.42762 -0.66593,-0.0769 -1.86,-3.49374 -1.41149,-3.92704 1.86363,-1.80053 4.19626,-3.16686 6.49684,-4.43923 0.9533,-0.52723 2.25838,-0.41835 3.77491,-0.71765 z"
   id="path26" />
<path
   fill="#8eb638"
   opacity="1"
   stroke="none"
   d="m 203.02267,190.41592 c -3.09947,0.38268 -5.87515,0.70749 -8.6584,0.79662 -1.70509,0.0546 -4.19774,0.36424 -4.93034,-0.55792 -0.85252,-1.07308 -0.5417,-3.4739 -0.0729,-5.10839 0.94615,-3.2985 5.85733,-5.00195 9.69501,-2.88897 2.60932,1.4367 7.07222,2.74032 3.96659,7.75866 z"
   id="path27" />
<path
   fill="#8bb535"
   opacity="1"
   stroke="none"
   d="m 294.25647,345.76016 c -1.50928,-0.5563 -2.76508,-1.34872 -4.13818,-2.45737 1.41091,-1.33297 2.93914,-2.34979 4.46737,-3.3666 -0.0252,1.86261 -0.0505,3.72525 -0.32919,5.82397 z"
   id="path28" />
<path
   fill="#8eb638"
   opacity="1"
   stroke="none"
   d="m 205.52486,197.30392 c -2.4422,0.0585 -4.62571,-0.0907 -8.07578,-0.32631 4.90921,-3.91835 6.77019,-3.58598 8.07578,0.32631 z"
   id="path29" />
<path
   fill="#8eb638"
   opacity="1"
   stroke="none"
   d="m 191.54179,213.02997 c 0.68932,0.83558 1.03495,1.63214 1.38057,2.42871 -2.44227,0 -4.88453,0 -7.32681,0 0.008,-0.82259 0.0152,-1.64516 0.0228,-2.46774 1.85994,0 3.71986,0 5.92349,0.039 z"
   id="path30" />
<path
   fill="#8eb638"
   opacity="1"
   stroke="none"
   d="m 97.149628,236.7518 c -1.21711,0.24736 -2.283814,0.24834 -3.750603,0.24905 0.43895,-1.74665 1.277977,-3.49307 2.117004,-5.23947 0.815941,0.66652 1.631882,1.33306 2.447823,1.99959 -0.221268,0.91481 -0.442543,1.82964 -0.814224,2.99083 z"
   id="path31" />
<path
   fill="#8eb638"
   opacity="1"
   stroke="none"
   d="m 132.46246,181.66403 c -0.849,0.24942 -1.66995,0.22894 -2.49087,0.20847 0.17587,-0.71346 0.35174,-1.42691 0.52762,-2.14037 0.66377,0.554 1.32754,1.108 1.96325,1.9319 z"
   id="path32" />
<path
   fill="#8bb535"
   opacity="1"
   stroke="none"
   d="m 281.0885,332.32489 c 0.14563,-0.53305 0.37247,-0.75125 0.75116,-1.15158 1.23196,0.99649 2.30359,2.16629 3.37521,3.33612 -0.38293,0.42294 -0.76583,0.84592 -1.14877,1.26889 -0.96262,-1.04324 -1.92523,-2.08649 -2.9776,-3.45343 z"
   id="path33" />
<path
   fill="#8eb638"
   opacity="1"
   stroke="none"
   d="m 185.87552,236.74499 c -0.52745,-0.21278 -1.18714,-0.68606 -1.85965,-1.45062 0.56726,0.20253 1.14732,0.69634 1.85965,1.45062 z"
   id="path34" />
<path
   fill="#8eb638"
   opacity="1"
   stroke="none"
   d="m 296.90811,280.7981 c -0.42093,-0.0234 -0.93378,-0.25119 -1.67917,-0.63761 0.37406,0.0386 0.98065,0.23593 1.67917,0.63761 z"
   id="path35" />
<path
   fill="#8eb638"
   opacity="1"
   stroke="none"
   d="m 181.09686,201.14233 c -0.13283,-0.008 -0.21165,-0.0622 -0.29046,-0.11662 0.11482,0.0233 0.22966,0.0466 0.29046,0.11662 z"
   id="path36" />
</svg>
