<?xml version="1.0" encoding="utf-8"?>
<!-- Generator: Adobe Illustrator 27.5.0, SVG Export Plug-In . SVG Version: 6.00 Build 0)  -->
<svg version="1.1" id="Capa_1" xmlns="http://www.w3.org/2000/svg" xmlns:xlink="http://www.w3.org/1999/xlink" x="0px" y="0px"
	 viewBox="0 0 2122 2122" style="enable-background:new 0 0 2122 2122;" xml:space="preserve">
<path style="fill:#744D28;" d="M2022.763,1441.332c-0.518-0.023-27.663-60.195-31.391-66.087
	c-13.46-21.268-29.27-39.791-45.555-58.465c-34.531-39.595-62.666-85.856-85.784-132.932
	c-39.085-79.589-63.161-166.589-70.041-255.01c-6.97-89.578-20.413-177.745-17.569-268.505c1.509-48.157,4.151-96.831-5.085-144.115
	c-9.236-47.285-31.956-93.967-71.505-121.481c-23.158-16.111-50.582-24.749-77.687-32.564
	c-99.357-28.652-201.003-49.349-303.643-61.889c-95.322-11.646-190.941-20.432-286.652-22.178
	c-56.097-1.025-112.367-2.041-168.161,3.881c-50.456,5.356-100.133,16.345-149.529,27.948
	c-45.303,10.642-90.552,21.837-134.598,36.861c-27.731,9.459-55.488,20.743-77.829,39.703
	c-28.582,24.256-46.203,59.658-54.063,96.313c-8.33,38.845-2.849,76.525-3.424,115.411c-0.567,38.394-4.842,77.042-10.297,115.012
	c-29.954,208.482-71.359,450.774-221.938,611.408C159.917,1375.95,111.766,1434.877,98.557,1506
	c49.193-40.147,115.821-48.879,176.869-66.338c32.062-9.169,65.201-23.305,91.542-43.616
	c-26.807,67.703-53.615,135.407-80.422,203.11c26.096-6.671,52.741-13.58,75.212-28.431c6.098-4.031,11.86-8.776,17.012-14.087
	c-28.138,63.938-56.277,127.876-84.415,191.814c33.324-50.633,112.874-27.987,168.821-51.316
	c22.773-9.495,41.269-26.755,61.908-40.278c76.67-50.233,177.571-45.431,265.703-20.249
	c88.133,25.183,170.451,68.475,259.253,91.185c39.19,10.022,79.732,16.072,116.812,32.241c37.08,16.168,71.419,44.887,81.871,83.965
	c39.259-66.324-36.956-154.274-7.001-225.288c14.741-34.945,51.612-55.127,87.726-66.712
	c109.708-35.201,236.311-12.199,326.626,59.342c12.282-35.401-2.504-74.766-23.75-105.63c-7.771-11.289-16.414-21.968-25.152-32.568
	c30.961,12.141,64.168,18.558,97.43,18.394c57.993-0.287,121.151-18.562,170.701,11.573c-10.019-24.148-11.642-50.951-17.733-76.334
	C1912.388,1434.021,1967.522,1438.879,2022.763,1441.332z"/>
<path style="fill:#BC8D4C;" d="M1714.821,488.238c-7.318-16.669-18.351-30.96-31.648-43.213
	c-19.621-18.081-44.172-31.722-68.984-42.019c-27.733-11.508-56.747-19.927-86.332-25.051c-29.591-5.125-59.596-6.928-89.463-9.687
	c-28.254-2.61-54.642-9.351-82.053-14.194c-58.916-10.409-118.661-17.451-178.099-24.111c-27.779-3.113-50.06-8.883-77.271-12.185
	c-51.486-6.246-101.886-9.211-153.75-7.317c-44.819,1.636-89.736,3.281-134.143,9.577c-42.326,6-83.934,16.189-125.389,26.628
	c-34.931,8.796-69.888,17.804-103.671,30.305c-26.834,9.93-54.009,22.949-71.057,45.93c-18.296,24.663-22.193,71.012,10.136,86.027
	c31.007,14.401,94.235,26.446,154.688,37.73c38.334,7.153,76.778,14.326,117.923,20.731c27.987,4.355,53.522,6.362,79.494,20.13
	c28.487,15.1,62.159,17.781,92.349,19.487c13.152,0.743,26.311,0.911,39.469,0.865c3.67,8.409,7.728,16.519,10.462,25.364
	c5.545,17.934,9.14,36.494,14.81,54.451c11.157,35.55,24.429,70.404,35.276,106.055c5.375,17.664,10.196,35.517,13.792,53.635
	c2.729,13.754,9.685,35.978,6.4,49.821c10.924-46.024,13.269-93.848,7.45-140.765c-2.465-19.88-3.119-36.024-9.462-55.261
	c-7.473-22.665-13.566-46.037-14.184-70.022c-0.197-7.634,0.031-15.696-1.191-23.206c23.283,1.355,46.661,4.743,69.757,3.855
	c18.504-0.713,35.856-8.238,54.569-7.468c29.415,1.212,58.85,5.19,88.252,7.162c14.295,0.959,28.71,1.141,42.976,2.353
	c10.911,0.927,20.587,4.409,31.638,4.598c29.595,0.504,59.346-0.291,88.926-1.462c11.257,45.706,19.597,92.131,24.945,138.899
	c5.499-30.926,8.671-62.266,9.478-93.666c0.405-15.752,0.357-32.088,3.936-47.254c48.794-3.327,97.418-9.792,144.749-22.312
	c32.468-8.589,66.821-22.07,83.748-51.078c4.148-7.111,7.089-15.029,7.718-23.238
	C1721.858,508.01,1718.981,497.713,1714.821,488.238z"/>
<path style="fill:#1D191E;" d="M1208.201,566.718c-62.889,0-133.632-2.479-204.691-11.318
	c-51.766-6.436-106.424-16.356-162.453-29.481c-29.8-6.987-60.789-10.987-90.757-14.85c-21.447-2.767-43.625-5.627-65.359-9.569
	c-31.447-5.705-63.564-14.086-85.442-36.609c-2.909-2.996-6.416-7.084-7.732-12.166c-1.71-6.592,0.434-14.334,6.039-21.798
	c11.459-15.264,30.146-23.362,46.913-29.272c28.336-9.983,56.847-14.056,84.419-17.988c11.922-1.705,24.251-3.464,36.526-5.686
	c84.066-15.225,169.761-21.798,254.703-19.552c1.377,0.039,2.465,1.184,2.429,2.563c-0.036,1.379-1.274,2.28-2.56,2.426
	c-84.596-2.241-169.951,4.312-253.685,19.474c-12.365,2.237-24.741,4.005-36.709,5.711c-28.59,4.082-55.593,7.936-83.466,17.758
	c-16.872,5.944-33.949,13.398-44.579,27.557c-2.706,3.61-6.984,10.685-5.201,17.554c1.018,3.927,3.849,7.23,6.482,9.939
	c20.899,21.52,52.124,29.622,82.755,35.177c21.608,3.922,43.72,6.772,65.106,9.53c30.092,3.883,61.21,7.898,91.259,14.943
	c55.856,13.086,110.336,22.977,161.926,29.388c104.918,13.042,209.245,12.19,288.419,9.987c25.522-0.706,51.249-1.179,76.129-1.632
	c61.283-1.12,124.657-2.28,187.624-7.118c31.951-2.446,62.277-6.314,82.163-26.455c4.261-4.312,6.899-8.409,8.068-12.526
	c4.068-14.329-8.841-28.015-16.899-34.899c-40.087-34.256-94.65-45.515-142.645-53.379c-53.578-8.775-108.984-17.851-166.121-20.964
	c-115.783-6.3-233.167-5.155-348.881,3.439c-25.162,1.866-50.765,3.24-75.522,4.57c-42.015,2.251-85.459,4.585-128.017,9.403
	c-7.868,0.887-14.667,5.398-16.536,10.967c-1.596,4.751,0.358,9.92,5.645,14.948c9.294,8.833,28.088,16.317,42.589,19.81
	c91.605,22.095,190.823,33.515,321.704,37.028c18.6,0.502,38.341-0.141,57.43-0.76c34.322-1.111,69.809-2.27,102.601,2.84
	c37.968,5.91,77.78,6.392,116.28,6.86c12.21,0.151,24.392,0.297,36.504,0.609l20.21,0.521c12.287,0.326,24.994,0.658,36.948-2.646
	c13.003-3.591,22.957-11.303,27.306-21.164c1.274-2.884,2.526-7.147,1.257-11.069c-2.361-7.284-11.837-9.964-19.827-11.484
	c-53.301-10.144-107.858-16.872-162.163-20c-5.72-0.326-11.527-0.682-17.403-1.043c-46.448-2.85-99.092-6.071-144.599,2.383
	c-37.218,6.923-75.81,5.452-113.123,4.015c-9.734-0.371-19.474-0.746-29.203-0.975l-19.578-0.448
	c-34.407-0.76-69.987-1.549-104.894-4.02c-2.251-0.156-4.502-0.326-6.75-0.511c-1.374-0.112-2.395-1.316-2.282-2.69
	c0.117-1.374,1.342-2.358,2.692-2.28c2.229,0.185,4.461,0.346,6.689,0.502c34.79,2.465,70.307,3.25,104.658,4.015l19.583,0.443
	c9.756,0.234,19.518,0.604,29.276,0.979c37.045,1.418,75.345,2.889,112.022-3.932c46.107-8.575,99.079-5.325,145.817-2.46
	c5.868,0.356,11.668,0.711,17.384,1.043c54.519,3.138,109.296,9.89,162.806,20.078c9.344,1.778,20.475,5.072,23.642,14.845
	c1.754,5.418,0.188,10.943-1.438,14.626c-4.957,11.23-16.09,19.966-30.543,23.961c-12.673,3.493-25.751,3.143-38.405,2.821
	l-19.949-0.516c-12.351-0.317-24.509-0.468-36.694-0.614c-38.677-0.467-78.67-0.955-116.991-6.918
	c-32.326-5.038-67.583-3.898-101.668-2.782c-19.159,0.619-38.967,1.257-57.727,0.76c-131.245-3.522-230.781-14.986-322.74-37.164
	c-14.039-3.386-34.212-10.928-44.857-21.048c-9.035-8.589-8.224-16.312-6.935-20.151c2.502-7.459,10.823-13.223,20.704-14.339
	c42.704-4.833,86.221-7.172,128.309-9.428c24.733-1.325,50.309-2.699,75.42-4.565c115.927-8.604,233.522-9.764,349.524-3.44
	c57.406,3.123,112.945,12.224,166.657,21.023c48.658,7.97,104.012,19.415,145.076,54.509c8.967,7.659,23.289,23.05,18.458,40.053
	c-1.403,4.945-4.451,9.739-9.316,14.67c-21.096,21.364-52.404,25.398-85.334,27.927c-63.111,4.843-126.557,6.002-187.915,7.128
	c-24.867,0.453-50.582,0.921-76.083,1.632C1266.904,566.143,1238.458,566.718,1208.201,566.718z"/>
<path style="fill:#1D191E;" d="M557.88,589.31c-0.563,0-1.13-0.19-1.598-0.58c-9.983-8.356-22.168-12.74-35.064-17.383
	c-7.876-2.836-16.02-5.769-23.574-9.681c-17.583-9.11-32.212-23.854-41.196-41.51c-0.624-1.228-0.134-2.729,1.094-3.352
	c1.215-0.633,2.729-0.136,3.355,1.092c8.514,16.731,22.38,30.704,39.042,39.338c7.26,3.766,15.245,6.64,22.967,9.418
	c12.74,4.589,25.914,9.33,36.577,18.251c1.057,0.887,1.196,2.46,0.312,3.517C559.303,589.008,558.594,589.31,557.88,589.31z"/>
<path style="fill:#1D191E;" d="M930.114,639.804l-0.149-0.004c-104.217-6.13-209.759-13.744-313.695-22.631
	c-1.374-0.117-2.39-1.325-2.273-2.699c0.114-1.374,1.349-2.338,2.697-2.271c103.895,8.882,209.393,16.492,313.563,22.621
	c1.376,0.078,2.424,1.262,2.343,2.636C932.523,638.781,931.424,639.804,930.114,639.804z"/>
<path style="fill:#1D191E;" d="M1377.116,682.63c-30.484,0-54.124-3.703-80.426-7.824c-20.105-3.148-40.896-6.402-67.795-8.653
	c-9.155-0.765-17.615-1.321-25.693-1.856c-26.346-1.739-49.099-3.24-78.472-10.86c-1.335-0.346-2.134-1.71-1.788-3.045
	c0.343-1.33,1.7-2.139,3.04-1.788c28.918,7.503,51.454,8.994,77.549,10.714c8.105,0.536,16.594,1.096,25.778,1.866
	c27.082,2.266,48.901,5.681,68.153,8.697c35.152,5.5,65.51,10.25,114.014,6.29c1.413-0.132,2.58,0.911,2.692,2.28
	c0.112,1.374-0.911,2.577-2.282,2.69C1399.197,682.177,1387.74,682.63,1377.116,682.63z"/>
<path style="fill:#1D191E;" d="M1540.349,666.182c-3.391,0-6.711-0.56-9.947-1.954c-1.264-0.541-1.849-2.012-1.306-3.274
	c0.548-1.262,2.012-1.861,3.279-1.306c7.391,3.176,16.093,0.858,25.087-2.027l112.886-36.132c1.316-0.414,2.716,0.302,3.135,1.618
	c0.422,1.311-0.302,2.714-1.615,3.138l-112.886,36.131C1552.624,664.409,1546.375,666.182,1540.349,666.182z"/>
<path style="fill:#1D191E;" d="M1762.535,1171.604c-0.996,0-1.939-0.599-2.324-1.584c-55.086-140.833-79.254-295.044-69.888-445.977
	c0.088-1.374,1.277-2.407,2.643-2.334c1.376,0.088,2.422,1.267,2.336,2.646c-9.321,150.207,14.731,303.688,69.557,443.843
	c0.502,1.286-0.132,2.733-1.415,3.235L1762.535,1171.604z"/>
<path style="fill:#1D191E;" d="M1096.854,1561.722h-0.021c-1.379-0.015-2.485-1.14-2.473-2.519
	c0.758-82.426,12.08-166.09,23.031-247.001c17.076-126.172,34.736-256.647,11.983-383.22c-0.243-1.359,0.658-2.655,2.015-2.899
	c1.343-0.215,2.653,0.657,2.897,2.012c22.889,127.352,5.179,258.216-11.949,384.774c-10.93,80.76-22.234,164.268-22.987,246.382
	C1099.336,1560.621,1098.22,1561.722,1096.854,1561.722z"/>
<path style="fill:#1D191E;" d="M466.302,916.437l-0.843-0.146c-1.296-0.468-1.971-1.895-1.506-3.191
	c14.843-41.349,21.903-86.416,20.419-130.323c-0.168-4.955-0.441-9.925-0.713-14.889c-0.831-15.167-1.691-30.85,0.533-46.217
	c0.195-1.359,1.457-2.256,2.826-2.114c1.362,0.2,2.307,1.462,2.109,2.826c-2.148,14.874-1.303,30.309-0.487,45.232
	c0.275,4.999,0.548,10.003,0.716,14.997c1.508,44.531-5.654,90.236-20.706,132.175C468.285,915.804,467.325,916.437,466.302,916.437
	z"/>
<path style="fill:#1D191E;" d="M363.761,1195.603c-0.48,0-0.967-0.136-1.393-0.429c-1.143-0.77-1.442-2.319-0.67-3.464
	c27.106-40.107,52.273-82.168,74.798-125.018c0.641-1.223,2.149-1.691,3.367-1.048c1.221,0.638,1.691,2.149,1.048,3.367
	c-22.609,43.016-47.871,85.238-75.081,125.495C365.35,1195.219,364.563,1195.603,363.761,1195.603z"/>
<path style="fill:#1D191E;" d="M568.273,1062.283l-0.26-0.015c-1.369-0.141-2.365-1.369-2.224-2.738
	c3.367-32.36,14.889-63.318,26.034-93.257c8.149-21.885,16.573-44.521,21.722-67.488c12.887-57.49,5.857-116.901-0.94-174.353
	c-0.161-1.369,0.816-2.606,2.185-2.767c1.374-0.214,2.607,0.814,2.77,2.183c6.845,57.866,13.927,117.705,0.853,176.029
	c-5.223,23.299-13.707,46.095-21.915,68.141c-11.035,29.642-22.446,60.302-25.744,92.029
	C570.618,1061.329,569.534,1062.283,568.273,1062.283z"/>
<path style="fill:#1D191E;" d="M764.925,1095.258l-1.306-0.025c-13.518-0.546-26.589-10.27-33.306-24.77
	c-6.175-13.335-6.645-28.326-6.292-41.227c1.206-43.956,12.56-87.391,23.542-129.393c12.139-46.436,24.692-94.45,23.272-142.767
	c-0.753-25.705-5.391-49.861-13.783-71.8c-0.492-1.286,0.151-2.729,1.437-3.22c1.279-0.487,2.728,0.151,3.22,1.437
	c8.594,22.465,13.342,47.172,14.115,73.437c1.44,49.033-11.206,97.398-23.435,144.175c-10.909,41.73-22.19,84.887-23.379,128.268
	c-0.341,12.326,0.088,26.592,5.829,38.996c5.94,12.818,17.313,21.408,28.979,21.876c17.255,0.667,31.13-15.264,40.071-27.337
	c34.529-46.611,60.429-101.383,74.903-158.382l1.489-5.861c13.417-52.726,27.291-107.25,17.944-160.774
	c-0.945-5.413-2.353-10.787-6.229-13.437c-6.248-4.258-15.325,0.629-21.734,6.621c-26.156,24.443-39.944,59.722-49.033,87.722
	c-13.503,41.598-22.575,85.184-31.347,127.327c-3.218,15.459-6.544,31.439-3.82,47.108c0.361,2.08,0.872,4.16,2.168,5.315
	c0.938,0.828,1.924,1.101,3.138,0.867c3.174-0.633,7.325-4.75,9.659-9.578c16.748-34.631,26.373-71.133,35.681-106.436
	c5.447-20.663,11.082-42.032,18.112-62.996c0.439-1.306,1.853-2.022,3.16-1.569c1.306,0.434,2.01,1.851,1.571,3.157
	c-6.979,20.804-12.592,42.095-18.019,62.68c-9.369,35.532-19.055,72.273-36.012,107.337c-2.492,5.155-7.678,11.201-13.177,12.297
	c-2.74,0.555-5.32-0.156-7.43-2.036c-2.446-2.178-3.277-5.359-3.766-8.18c-2.885-16.609,0.691-33.807,3.849-48.979
	c8.801-42.28,17.902-85.998,31.488-127.854c9.274-28.575,23.384-64.604,50.373-89.827c7.824-7.318,19.279-13.028,27.954-7.098
	c5.406,3.698,7.199,10.212,8.331,16.701c9.53,54.577-4.477,109.627-18.024,162.865l-1.488,5.856
	c-14.633,57.622-40.819,112.993-75.73,160.126C798.501,1078.566,783.904,1095.258,764.925,1095.258z"/>
<path style="fill:#1D191E;" d="M998.808,989.49l-0.273-0.015c-1.369-0.151-2.358-1.378-2.21-2.748
	c7.788-71.468,11.133-144.146,9.942-216.024c-0.022-1.373,1.077-2.509,2.453-2.533h0.041c1.359,0,2.473,1.092,2.494,2.456
	c1.194,72.078-2.161,144.969-9.97,216.638C1001.146,988.544,1000.065,989.49,998.808,989.49z"/>
<path style="fill:#1D191E;" d="M931.677,1315.798l-0.913-0.175c-1.281-0.502-1.912-1.949-1.408-3.23
	c11.552-29.364,25.768-58.397,39.515-86.475c27.781-56.731,56.507-115.396,63.849-178.538c0.156-1.369,1.396-2.329,2.765-2.193
	c1.369,0.161,2.348,1.398,2.19,2.767c-7.44,63.995-36.358,123.05-64.321,180.156c-13.705,27.99-27.878,56.93-39.354,86.104
	C933.611,1315.199,932.672,1315.798,931.677,1315.798z"/>
<path style="fill:#1D191E;" d="M789.271,1349.903l-0.263-0.015c-1.37-0.141-2.363-1.369-2.22-2.738
	c12.11-115.649,65.542-222.518,117.213-325.865c4.353-8.706,8.699-17.398,13.013-26.08c0.611-1.233,2.102-1.73,3.345-1.126
	c1.233,0.614,1.737,2.114,1.123,3.347c-4.317,8.687-8.662,17.379-13.018,26.09c-51.471,102.947-104.699,209.407-116.716,324.15
	C791.614,1348.948,790.533,1349.903,789.271,1349.903z"/>
<path style="fill:#1D191E;" d="M541.556,1276.363c-0.555,0-1.115-0.185-1.581-0.565c-1.064-0.877-1.218-2.446-0.343-3.513
	c29.228-35.591,56.692-73.272,81.629-112c13.674-21.242,28.046-46.07,25.467-71.946c-0.136-1.374,0.865-2.592,2.234-2.728
	c1.391-0.146,2.594,0.862,2.73,2.231c2.738,27.474-12.107,53.193-26.236,75.142c-25.042,38.89-52.621,76.731-81.97,112.468
	C542.994,1276.051,542.278,1276.363,541.556,1276.363z"/>
<path style="fill:#1D191E;" d="M1224.936,868.198c-1.294,0-2.387-0.999-2.484-2.309l-10.47-141.495
	c-0.102-1.374,0.928-2.572,2.302-2.675c1.381-0.122,2.57,0.935,2.673,2.304l10.47,141.495c0.102,1.374-0.928,2.573-2.302,2.675
	L1224.936,868.198z"/>
<path style="fill:#1D191E;" d="M1297.119,805.5c-1.145,0-2.176-0.79-2.434-1.954c-4.736-21.359-7.54-43.274-8.334-65.13
	c-0.051-1.379,1.025-2.534,2.402-2.587c1.323-0.088,2.533,1.023,2.582,2.402c0.784,21.559,3.552,43.167,8.221,64.234
	c0.297,1.345-0.55,2.68-1.895,2.976L1297.119,805.5z"/>
<path style="fill:#1D191E;" d="M1538.436,781.202l-0.458-0.044c-1.354-0.248-2.248-1.549-1.998-2.904l12.721-68.628
	c0.251-1.359,1.552-2.271,2.909-1.998c1.354,0.248,2.249,1.549,1.998,2.904l-12.721,68.628
	C1540.663,780.365,1539.615,781.202,1538.436,781.202z"/>
<path style="fill:#1D191E;" d="M1605.381,799.419c-1.181,0-2.229-0.838-2.451-2.042c-5.364-29.11-5.588-58.674-0.67-87.873
	c0.229-1.359,1.515-2.289,2.874-2.046c1.359,0.229,2.276,1.515,2.047,2.875c-4.823,28.624-4.602,57.603,0.655,86.139
	c0.251,1.354-0.646,2.655-2,2.909L1605.381,799.419z"/>
<path style="fill:#1D191E;" d="M1510.375,1377.674c-1.286,0-2.378-0.989-2.485-2.29c-4.509-55.186-33.625-104.521-61.781-152.234
	c-23.02-39.006-46.828-79.347-57.888-123.41c-10.784-42.967-9.118-88.253-7.508-132.049c1.72-46.718,3.496-95.021-10.046-139.946
	c-0.399-1.32,0.349-2.714,1.666-3.108c1.333-0.409,2.712,0.351,3.109,1.666c13.783,45.719,11.99,94.445,10.258,141.573
	c-1.598,43.444-3.249,88.37,7.359,130.646c10.887,43.371,34.504,83.391,57.347,122.094c28.443,48.195,57.854,98.031,62.458,154.358
	c0.112,1.374-0.911,2.577-2.285,2.689L1510.375,1377.674z"/>
<path style="fill:#1D191E;" d="M1360.481,1331.228c-0.945,0-1.847-0.536-2.268-1.452c-44.811-97.203-79.696-199.381-103.683-303.688
	c-0.309-1.344,0.529-2.685,1.873-2.991c1.345-0.317,2.68,0.526,2.989,1.871c23.912,103.975,58.684,205.826,103.352,302.723
	c0.577,1.247,0.029,2.734-1.221,3.308L1360.481,1331.228z"/>
<path style="fill:#1D191E;" d="M1593.978,1282.95c-1.099,0-2.105-0.73-2.407-1.841c-33.654-124.57-62.487-252.078-85.695-378.976
	c-0.248-1.355,0.648-2.655,2.005-2.904c1.354-0.205,2.655,0.653,2.901,2.007c23.187,126.762,51.988,254.134,85.608,378.567
	c0.358,1.33-0.428,2.704-1.759,3.06L1593.978,1282.95z"/>
<path style="fill:#1D191E;" d="M258.166,1358.102c-0.563,0-1.13-0.19-1.598-0.58c-1.057-0.886-1.196-2.461-0.314-3.513
	c15.182-18.153,36.139-29.963,56.405-41.383c7.335-4.131,14.918-8.405,22.076-12.901c34.463-21.637,63.685-51.552,84.504-86.509
	c0.704-1.184,2.234-1.573,3.42-0.867c1.184,0.707,1.571,2.236,0.867,3.42c-21.223,35.635-51.008,66.129-86.136,88.185
	c-7.259,4.555-14.896,8.858-22.28,13.018c-19.878,11.201-40.431,22.782-55.026,40.234
	C259.589,1357.801,258.88,1358.102,258.166,1358.102z"/>
<path style="fill:#1D191E;" d="M1139.731,1423.51c-1.272,0-2.358-0.97-2.48-2.26c-3.929-41.34,8.833-81.739,23.208-119.235
	c2.516-6.563,5.103-13.116,7.693-19.668c12.095-30.617,24.601-62.271,29.369-95.103c0.197-1.359,1.44-2.295,2.826-2.11
	c1.364,0.2,2.309,1.466,2.109,2.831c-4.85,33.403-17.464,65.335-29.664,96.214c-2.584,6.544-5.167,13.077-7.676,19.62
	c-14.158,36.93-26.731,76.667-22.902,116.984c0.132,1.369-0.875,2.587-2.246,2.719L1139.731,1423.51z"/>
<path style="fill:#1D191E;" d="M1188.81,1047.277l-0.499-0.049c-1.349-0.278-2.222-1.593-1.946-2.943
	c7.527-37.033,5.023-79.045-7.657-128.434c-6.648-25.905-15.427-51.708-23.915-76.657c-5.327-15.654-10.835-31.844-15.776-47.932
	c-0.404-1.315,0.336-2.708,1.652-3.113c1.325-0.429,2.714,0.331,3.118,1.652c4.918,16.014,10.414,32.165,15.727,47.785
	c8.521,25.042,17.33,50.933,24.027,77.028c12.872,50.134,15.394,92.877,7.71,130.665
	C1191.012,1046.464,1189.972,1047.277,1188.81,1047.277z"/>
<path style="fill:#1D191E;" d="M385.522,1543.637c-0.475,0-0.955-0.136-1.381-0.419c-1.145-0.765-1.457-2.309-0.692-3.459
	c9.432-14.163,19.864-27.927,29.951-41.238c10.341-13.641,21.033-27.751,30.607-42.236c22.439-33.963,39.547-71.011,50.848-110.114
	c0.385-1.325,1.769-2.1,3.089-1.705c1.326,0.385,2.088,1.764,1.705,3.089c-11.442,39.59-28.762,77.096-51.481,111.478
	c-9.659,14.621-20.402,28.794-30.792,42.504c-10.041,13.252-20.426,26.953-29.775,40.989
	C387.121,1543.247,386.329,1543.637,385.522,1543.637z"/>
<path style="fill:#1D191E;" d="M329.357,1403.374c-0.619,0-1.237-0.229-1.722-0.687c-0.996-0.955-1.033-2.533-0.083-3.527
	l85.679-89.875c0.952-0.999,2.531-1.028,3.527-0.088c0.996,0.955,1.033,2.533,0.083,3.527l-85.678,89.876
	C330.673,1403.116,330.015,1403.374,329.357,1403.374z"/>
<path style="fill:#1D191E;" d="M337.654,1556.075l-0.972-0.195c-1.269-0.536-1.861-2.003-1.325-3.269
	c9.649-22.84,17.815-46.563,24.265-70.514c0.358-1.34,1.73-2.124,3.057-1.759c1.33,0.356,2.119,1.725,1.762,3.055
	c-6.512,24.17-14.75,48.112-24.49,71.157C339.55,1555.505,338.626,1556.075,337.654,1556.075z"/>
<path style="fill:#1D191E;" d="M357.732,1547.535c-0.48,0-0.967-0.137-1.396-0.429c-1.14-0.77-1.439-2.324-0.667-3.464
	c8.806-13.023,16.541-26.889,22.986-41.213c0.57-1.257,2.046-1.822,3.298-1.252c1.257,0.565,1.818,2.041,1.252,3.298
	c-6.565,14.582-14.439,28.701-23.405,41.963C359.318,1547.15,358.534,1547.535,357.732,1547.535z"/>
<path style="fill:#1D191E;" d="M141.465,1458.395c-0.572,0-1.145-0.195-1.615-0.595c-1.05-0.892-1.179-2.465-0.287-3.513
	c11.013-12.979,23.035-25.266,35.734-36.526c1.025-0.92,2.604-0.823,3.52,0.21c0.914,1.033,0.821,2.607-0.212,3.523
	c-12.521,11.104-24.377,23.225-35.237,36.019C142.873,1458.097,142.171,1458.395,141.465,1458.395z"/>
<path style="fill:#1D191E;" d="M390.816,1681.045c-0.77,0-1.528-0.356-2.017-1.023c-0.811-1.111-0.57-2.675,0.543-3.483
	c17.591-12.858,37.573-22.237,56.901-31.313c10.027-4.707,20.395-9.573,30.268-14.85c41.449-22.178,80.962-54.996,120.794-100.336
	c40.095-45.632,68.143-89.681,85.751-134.65c0.507-1.282,1.954-1.91,3.233-1.413c1.284,0.501,1.917,1.949,1.415,3.235
	c-17.825,45.515-46.168,90.041-86.653,136.122c-40.234,45.798-80.202,78.976-122.187,101.437
	c-9.99,5.345-20.417,10.241-30.502,14.972c-19.11,8.974-38.874,18.251-56.078,30.821
	C391.842,1680.888,391.325,1681.045,390.816,1681.045z"/>
<path style="fill:#1D191E;" d="M414.595,1595.759c-0.728,0-1.452-0.317-1.944-0.931c-0.865-1.072-0.697-2.641,0.375-3.508
	c53.879-43.435,99.006-95.698,134.129-155.327c0.699-1.189,2.229-1.583,3.416-0.882c1.186,0.696,1.581,2.227,0.882,3.415
	c-35.427,60.146-80.948,112.862-135.293,156.682C415.696,1595.578,415.143,1595.759,414.595,1595.759z"/>
<path style="fill:#1D191E;" d="M1188.922,1739.919c-0.784,0-1.559-0.37-2.043-1.062c-18.904-26.904-44.47-49.179-69.196-70.719
	c-28.794-25.086-58.568-51.026-78.122-84.497c-27.681-47.376-32.008-102.992-34.273-160.58c-0.053-1.374,1.018-2.533,2.395-2.592
	c1.328,0.117,2.538,1.018,2.59,2.397c2.241,56.93,6.494,111.873,33.595,158.26c19.143,32.76,48.602,58.427,77.091,83.25
	c24.95,21.734,50.75,44.214,70.002,71.615c0.792,1.125,0.519,2.68-0.606,3.474
	C1189.918,1739.773,1189.416,1739.919,1188.922,1739.919z"/>
<path style="fill:#1D191E;" d="M919.612,1622.647c-0.529,0-1.062-0.166-1.513-0.511c-62.468-47.81-112.409-111.06-144.431-182.913
	c-0.563-1.257,0.005-2.734,1.262-3.294c1.267-0.56,2.73,0.005,3.293,1.267c31.683,71.094,81.101,133.676,142.906,180.974
	c1.094,0.838,1.303,2.407,0.465,3.498C921.105,1622.311,920.362,1622.647,919.612,1622.647z"/>
<path style="fill:#1D191E;" d="M1615.761,1562.511c-0.858,0-1.691-0.439-2.153-1.233c-7.783-13.276-21.175-24.37-39.807-32.984
	c-10.819-5.004-22.412-8.799-33.625-12.473c-5.678-1.856-11.354-3.717-16.972-5.734c-26.161-9.393-51.242-22.329-75.498-34.84
	c-5.937-3.06-11.873-6.124-17.827-9.135c-6.019-3.05-12.068-6.051-18.114-9.052c-23.338-11.591-47.469-23.576-69.681-38.105
	c-32.053-20.96-55.649-44.784-70.132-70.806c-0.669-1.203-0.236-2.724,0.967-3.391c1.211-0.672,2.724-0.239,3.394,0.965
	c14.083,25.31,37.13,48.545,68.499,69.062c21.969,14.363,45.963,26.28,69.169,37.802c6.061,3.011,12.119,6.022,18.151,9.072
	c5.964,3.02,11.912,6.085,17.861,9.154c24.112,12.439,49.042,25.296,74.896,34.577c5.571,2.003,11.206,3.844,16.838,5.691
	c11.349,3.717,23.084,7.561,34.168,12.682c19.573,9.053,33.71,20.823,42.015,34.991c0.697,1.189,0.299,2.719-0.889,3.415
	L1615.761,1562.511z"/>
<path style="fill:#1D191E;" d="M1591.498,1449.542c-0.478,0-0.96-0.136-1.386-0.424c-22.112-14.826-41.449-33.135-57.476-54.412
	c-0.828-1.101-0.609-2.665,0.492-3.493c1.101-0.818,2.67-0.609,3.493,0.492c15.688,20.833,34.621,38.753,56.268,53.271
	c1.145,0.765,1.45,2.314,0.682,3.459C1593.092,1449.152,1592.302,1449.542,1591.498,1449.542z"/>
<path style="fill:#1D191E;" d="M1811.69,1456.787c-0.731,0-1.454-0.317-1.947-0.931c-16.726-20.819-43.544-29.817-69.478-38.524
	c-6.638-2.227-13.501-4.531-20.068-6.996c-51.293-19.221-96.694-54.626-127.844-99.688c-0.784-1.13-0.499-2.685,0.634-3.469
	c1.123-0.794,2.687-0.502,3.469,0.633c30.577,44.229,75.145,78.982,125.49,97.856c6.487,2.431,13.311,4.721,19.907,6.933
	c26.616,8.935,54.139,18.172,71.778,40.126c0.863,1.077,0.692,2.646-0.382,3.508
	C1812.789,1456.607,1812.238,1456.787,1811.69,1456.787z"/>
<path style="fill:#1D191E;" d="M1842.976,1397.893c-1.055,0-2.034-0.672-2.375-1.73c-12.051-37.379-39.503-67.488-66.051-96.609
	c-10.01-10.977-20.361-22.334-29.776-33.949c-30.395-37.491-53.759-81.744-67.564-127.98c-0.395-1.315,0.356-2.709,1.676-3.103
	c1.326-0.38,2.711,0.356,3.104,1.676c13.623,45.618,36.672,89.276,66.658,126.27c9.328,11.498,19.627,22.796,29.59,33.724
	c26.906,29.516,54.728,60.034,67.113,98.441c0.421,1.311-0.297,2.719-1.61,3.138L1842.976,1397.893z"/>
<path style="fill:#1D191E;" d="M1977.534,1418.458l-0.933-0.181c-32.149-12.95-61.391-33.417-84.57-59.196
	c-0.923-1.023-0.838-2.602,0.185-3.522c1.023-0.921,2.599-0.843,3.523,0.19c22.675,25.209,51.281,45.233,82.728,57.9
	c1.277,0.516,1.895,1.968,1.381,3.245C1979.456,1417.868,1978.52,1418.458,1977.534,1418.458z"/>
<path style="fill:#1D191E;" d="M1996.167,1409.703c-0.492,0-0.991-0.146-1.427-0.448c-18.375-12.843-35.635-27.483-51.298-43.518
	c-0.965-0.984-0.945-2.568,0.039-3.527c0.991-0.965,2.57-0.935,3.527,0.039c15.447,15.815,32.47,30.251,50.592,42.913
	c1.127,0.789,1.403,2.344,0.614,3.474C1997.729,1409.333,1996.954,1409.703,1996.167,1409.703z"/>
<path style="fill:#1D191E;" d="M1848.287,1268.134c-0.921,0-1.805-0.511-2.239-1.393c-20.173-40.911-36.139-84.058-47.462-128.248
	c-0.341-1.335,0.463-2.695,1.798-3.035c1.328-0.346,2.692,0.462,3.035,1.797c11.235,43.854,27.084,86.679,47.101,127.283
	c0.611,1.233,0.102,2.729-1.133,3.338L1848.287,1268.134z"/>
<path style="fill:#1D191E;" d="M1799.714,1403.939c-0.555,0-1.113-0.185-1.578-0.565c-14.565-11.927-29.917-23.21-45.627-33.539
	c-1.15-0.76-1.469-2.304-0.714-3.454c0.762-1.15,2.304-1.471,3.457-0.716c15.854,10.427,31.345,21.813,46.046,33.852
	c1.065,0.872,1.223,2.446,0.348,3.508C1801.154,1403.627,1800.438,1403.939,1799.714,1403.939z"/>
<path style="fill:#1D191E;" d="M1783.283,1467.057l-0.845-0.146c-17.159-6.187-35.016-10.533-53.074-12.921
	c-1.366-0.185-2.326-1.437-2.146-2.802c0.181-1.364,1.423-2.324,2.799-2.148c18.411,2.436,36.618,6.869,54.112,13.174
	c1.296,0.467,1.968,1.9,1.501,3.196C1785.264,1466.424,1784.304,1467.057,1783.283,1467.057z"/>
<path style="fill:#1D191E;" d="M1496.195,1479.257l-1.216-0.317l-70.938-39.688c-1.201-0.672-1.632-2.192-0.96-3.396
	s2.193-1.632,3.396-0.96l70.937,39.688c1.203,0.672,1.632,2.192,0.96,3.396C1497.917,1478.799,1497.07,1479.257,1496.195,1479.257z"
	/>
<path style="fill:#1D191E;" d="M1371.735,1478.326c-0.465,0-0.935-0.132-1.357-0.405l-63.963-41.515
	c-1.157-0.745-1.486-2.294-0.735-3.449c0.75-1.155,2.294-1.481,3.449-0.731l63.968,41.515c1.154,0.75,1.483,2.295,0.733,3.449
	C1373.352,1477.927,1372.551,1478.326,1371.735,1478.326z"/>
<path style="fill:#1D191E;" d="M1091.904,1385.795h-0.03c-1.376-0.014-2.48-1.145-2.465-2.524
	c0.343-29.676,1.824-59.717,4.404-89.281c0.119-1.374,1.342-2.344,2.702-2.27c1.371,0.122,2.387,1.33,2.268,2.704
	c-2.568,29.442-4.044,59.351-4.385,88.906C1094.381,1384.699,1093.268,1385.795,1091.904,1385.795z"/>
<path style="fill:#1D191E;" d="M607.315,1219.861l-1.153-0.282c-1.22-0.638-1.693-2.144-1.057-3.367
	c8.943-17.135,18.904-33.993,29.608-50.105c0.76-1.154,2.307-1.457,3.459-0.696c1.147,0.76,1.459,2.309,0.696,3.454
	c-10.607,15.97-20.477,32.677-29.34,49.656C609.084,1219.375,608.214,1219.861,607.315,1219.861z"/>
<path style="fill:#1D191E;" d="M723.561,951.195l-0.619-0.078c-1.335-0.341-2.141-1.701-1.801-3.035l19.437-76.122
	c0.339-1.334,1.691-2.153,3.033-1.797c1.335,0.341,2.141,1.7,1.801,3.035l-19.437,76.122
	C725.688,950.445,724.674,951.195,723.561,951.195z"/>
<path style="fill:#1D191E;" d="M587.715,923.58l-0.77-0.122c-1.311-0.424-2.029-1.832-1.603-3.143
	c7.637-23.513,13.381-47.824,17.077-72.263c0.202-1.359,1.478-2.304,2.838-2.09c1.362,0.205,2.299,1.476,2.092,2.84
	c-3.734,24.702-9.542,49.282-17.261,73.052C589.744,922.912,588.767,923.58,587.715,923.58z"/>
<path style="fill:#1D191E;" d="M836.435,1230.147l-0.383-0.029c-1.361-0.21-2.294-1.486-2.085-2.845
	c5.795-37.491,17.184-73.788,33.849-107.878c0.609-1.237,2.102-1.734,3.338-1.145c1.237,0.604,1.749,2.1,1.145,3.337
	c-16.446,33.637-27.683,69.452-33.401,106.445C838.708,1229.265,837.646,1230.147,836.435,1230.147z"/>
<path style="fill:#1D191E;" d="M986.04,1248.943l-0.994-0.209c-1.264-0.55-1.841-2.017-1.291-3.284l33.399-76.599
	c0.553-1.257,2.024-1.836,3.284-1.286c1.264,0.551,1.841,2.017,1.291,3.284l-33.398,76.599
	C987.921,1248.383,987.003,1248.943,986.04,1248.943z"/>
<path style="fill:#1D191E;" d="M1021.183,910.859c-1.352,0-2.463-1.082-2.495-2.436l-1.153-50.718
	c-0.031-1.378,1.06-2.519,2.439-2.553h0.056c1.352,0,2.463,1.082,2.495,2.436l1.152,50.719c0.031,1.379-1.06,2.519-2.439,2.553
	H1021.183z"/>
<path style="fill:#1D191E;" d="M1323.031,1186.376c-0.986,0-1.922-0.589-2.314-1.564l-26.889-66.708
	c-0.514-1.277,0.105-2.728,1.381-3.245c1.282-0.507,2.731,0.102,3.247,1.383l26.889,66.709c0.514,1.277-0.105,2.728-1.382,3.245
	L1323.031,1186.376z"/>
<path style="fill:#1D191E;" d="M1432.453,1135.706c-0.967,0-1.89-0.57-2.294-1.515c-15.428-36.156-31.382-73.544-33.915-113.851
	c-0.085-1.374,0.957-2.558,2.334-2.646c1.335-0.127,2.56,0.96,2.646,2.334c2.479,39.449,18.263,76.433,33.525,112.204
	c0.541,1.267-0.049,2.733-1.316,3.274L1432.453,1135.706z"/>
<path style="fill:#1D191E;" d="M1573.985,1135.73c-1.137,0-2.166-0.785-2.429-1.939l-30.212-132.774
	c-0.307-1.345,0.533-2.68,1.878-2.987c1.323-0.331,2.675,0.536,2.984,1.875l30.212,132.774c0.307,1.345-0.534,2.68-1.878,2.987
	L1573.985,1135.73z"/>
<path style="fill:#1D191E;" d="M1732.404,1006.508c-1.104,0-2.114-0.74-2.409-1.856c-11.279-42.704-19.181-86.646-23.488-130.596
	c-0.134-1.37,0.867-2.592,2.239-2.729c1.388-0.054,2.592,0.872,2.726,2.241c4.28,43.688,12.136,87.361,23.347,129.807
	c0.351,1.334-0.444,2.699-1.776,3.05L1732.404,1006.508z"/>
<path style="fill:#1D191E;" d="M796.511,617.539c-32.906,0-65.376-5.276-96.733-15.732c-1.306-0.439-2.012-1.851-1.576-3.157
	c0.436-1.301,1.841-2.012,3.155-1.579c35.474,11.829,72.399,16.921,109.768,15.128c1.352-0.253,2.543,0.994,2.611,2.368
	c0.066,1.379-0.996,2.548-2.373,2.612C806.406,617.417,801.451,617.539,796.511,617.539z"/>
<path style="fill:#1D191E;" d="M546.144,557.992l-0.748-0.117c-20.604-6.47-40.965-14.466-60.519-23.761
	c-1.242-0.59-1.774-2.075-1.181-3.323c0.594-1.243,2.08-1.779,3.325-1.179c19.342,9.194,39.486,17.101,59.871,23.508
	c1.313,0.41,2.043,1.813,1.632,3.123C548.19,557.31,547.206,557.992,546.144,557.992z"/>
<path style="fill:#1D191E;" d="M1313.158,657.13c-35.576,0-71.167-3.513-106.063-10.48c-1.352-0.268-2.229-1.583-1.959-2.933
	c0.268-1.354,1.581-2.241,2.933-1.959c40.792,8.141,82.526,11.547,124.098,10.041c1.325,0.054,2.533,1.028,2.58,2.407
	c0.048,1.373-1.026,2.533-2.405,2.582C1325.952,657.013,1319.555,657.13,1313.158,657.13z"/>
<path style="fill:#1D191E;" d="M1638.994,657.573c-1.077,0-2.071-0.702-2.392-1.788c-0.39-1.321,0.363-2.709,1.686-3.099
	c31.403-9.291,60.57-24.01,86.691-43.747c1.092-0.838,2.663-0.619,3.493,0.483c0.831,1.101,0.614,2.665-0.487,3.493
	c-26.6,20.107-56.305,35.094-88.285,44.555L1638.994,657.573z"/>
</svg>
